<svg width="367" height="72" viewBox="0 0 367 72" fill="none" xmlns="http://www.w3.org/2000/svg" xmlns:xlink="http://www.w3.org/1999/xlink">
<mask id="mask0_921_5382" style="mask-type:alpha" maskUnits="userSpaceOnUse" x="0" y="0" width="367" height="72">
<path d="M0 16V27.5V71.5H367V34.5C367 25.6634 359.837 18.5 351 18.5H135.495C130.635 18.5 125.913 16.891 122.064 13.9242L109.666 4.36779C105.992 1.53585 101.484 0 96.8456 0H16C7.16344 0 0 7.16344 0 16Z" fill="#0000C9"/>
</mask>
<g mask="url(#mask0_921_5382)">
<path d="M0 16V27.5V462C0 470.837 7.16345 478 16 478H351C359.837 478 367 470.837 367 462V34.5C367 25.6634 359.837 18.5 351 18.5H135.495C130.635 18.5 125.913 16.891 122.064 13.9242L109.666 4.36779C105.992 1.53585 101.484 0 96.8456 0H16C7.16344 0 0 7.16344 0 16Z" fill="#0000C9"/>
</g>

</svg>
