<svg width="326" height="148" viewBox="0 0 326 148" fill="none" xmlns="http://www.w3.org/2000/svg">
<path d="M11.384 27.432C6.632 27.432 2.24 25.596 0.332 21.708L4.76 18.72C6.236 21.672 8.9 22.716 11.672 22.716C14.264 22.716 16.1 21.78 16.1 19.908C16.1 17.712 13.544 17.244 11.42 16.668L8.576 15.912C6.452 15.336 1.016 13.896 1.016 8.316C1.016 3.708 4.76 0.791998 10.916 0.791998C15.452 0.791998 19.34 2.412 21.5 5.724L17.18 8.748C15.308 6.444 13.148 5.508 10.628 5.508C8.108 5.508 6.74 6.48 6.74 7.992C6.74 9.756 8.684 10.332 11.06 10.98L13.94 11.772C17 12.6 21.824 14.04 21.824 19.44C21.824 24.732 17.18 27.432 11.384 27.432ZM35.2843 23.148L35.9323 26.712C34.7083 27.108 33.3403 27.468 31.5043 27.468C26.8603 27.468 26.3923 24.84 26.3923 21.996V12.06H23.6203V8.064H26.5723V3.6L31.6483 1.332V8.064H35.5003V12.06H31.6483V21.24C31.6483 22.68 31.7203 23.724 33.0163 23.724C33.7003 23.724 34.3843 23.544 35.2843 23.148ZM47.1778 7.632C53.0098 7.632 56.3218 11.376 56.0698 17.496L56.0338 18.396H42.7498C43.0018 21.528 44.5858 23.292 47.1418 23.292C49.0858 23.292 50.5618 22.392 51.1738 20.808L55.9978 21.564C54.8098 25.236 51.4978 27.468 47.2138 27.468C41.2018 27.468 37.5658 23.724 37.5658 17.604C37.5658 11.412 41.2018 7.632 47.1778 7.632ZM42.9658 15.012H50.9578C50.5618 12.6 49.1938 11.268 47.1058 11.268C44.9458 11.268 43.5058 12.6 42.9658 15.012ZM70.3545 7.632C75.2505 7.632 77.9865 12.096 77.9865 17.568C77.9865 23.04 75.2145 27.468 70.3185 27.468C67.9065 27.468 66.0345 26.1 64.8825 23.94V34.128H59.6265C59.7345 29.844 59.7705 25.56 59.7705 21.276C59.7705 16.884 59.7345 12.456 59.6265 8.064H64.9905L64.9185 10.836C66.0705 8.82 67.9065 7.632 70.3545 7.632ZM68.6625 23.292C71.2905 23.292 72.6225 21.096 72.6225 17.568C72.6225 14.04 71.3265 11.808 68.6625 11.808C65.9985 11.808 64.7025 13.824 64.7025 17.388C64.7025 21.168 66.1425 23.292 68.6625 23.292ZM91.3484 27C91.4204 22.716 91.4564 18.396 91.4564 13.5C91.4564 9.828 91.4204 5.508 91.3484 1.224H97.1084C97.0724 5.508 97.0004 9.828 97.0004 13.5C97.0004 18.396 97.0724 22.716 97.1084 27H91.3484ZM119.809 27H114.373C114.445 23.184 114.445 19.692 114.445 15.804C114.445 13.14 113.581 11.808 111.313 11.808C108.829 11.808 107.425 13.68 107.425 16.164V27H102.025C102.061 23.832 102.097 20.664 102.097 17.496C102.097 14.4 102.061 11.196 102.025 8.064H107.533L107.425 11.16C108.649 8.892 110.881 7.632 113.545 7.632C118.369 7.632 119.773 10.836 119.773 14.76C119.773 18.756 119.737 22.86 119.809 27ZM134.073 23.148L134.721 26.712C133.497 27.108 132.129 27.468 130.293 27.468C125.649 27.468 125.181 24.84 125.181 21.996V12.06H122.409V8.064H125.361V3.6L130.437 1.332V8.064H134.289V12.06H130.437V21.24C130.437 22.68 130.509 23.724 131.805 23.724C132.489 23.724 133.173 23.544 134.073 23.148ZM145.967 27.468C139.631 27.468 136.355 23.328 136.355 17.568C136.355 11.808 139.631 7.632 145.967 7.632C152.303 7.632 155.543 11.808 155.543 17.568C155.543 23.328 152.303 27.468 145.967 27.468ZM145.967 23.292C148.667 23.292 150.215 21.204 150.215 17.568C150.215 13.896 148.667 11.808 145.967 11.808C143.267 11.808 141.719 13.896 141.719 17.568C141.719 21.204 143.267 23.292 145.967 23.292ZM179.667 27.468C172.575 27.468 167.859 22.32 167.859 14.112C167.859 5.904 172.575 0.755999 179.667 0.755999C185.535 0.755999 189.639 4.248 190.863 10.152L185.283 11.268C184.563 7.74 182.511 5.616 179.667 5.616C176.103 5.616 173.583 8.82 173.583 14.112C173.583 19.296 176.103 22.608 179.667 22.608C182.655 22.608 184.743 20.52 185.463 16.776L191.079 17.676C189.963 23.832 185.823 27.468 179.667 27.468ZM199.78 12.276C201.004 9.252 203.344 7.668 206.368 7.632V13.032C201.904 12.636 199.78 14.724 199.78 19.44V27H194.38C194.416 23.832 194.452 20.664 194.452 17.496C194.452 14.4 194.416 11.196 194.38 8.064H199.888L199.78 11.628V12.276ZM221.251 8.064H226.615L219.091 27L218.371 28.764C217.579 30.708 216.103 34.128 211.639 34.128C210.703 34.128 209.371 33.984 208.003 33.66L207.643 29.7C208.903 30.06 210.019 30.168 210.667 30.168C212.683 30.168 213.295 29.052 213.907 27.648L214.195 27L206.382 8.064H212.035L215.455 17.496C215.814 18.468 216.103 19.512 216.607 22.248C217.146 19.512 217.471 18.468 217.795 17.568L221.251 8.064ZM239.351 7.632C244.247 7.632 246.983 12.096 246.983 17.568C246.983 23.04 244.211 27.468 239.315 27.468C236.903 27.468 235.031 26.1 233.879 23.94V34.128H228.623C228.731 29.844 228.767 25.56 228.767 21.276C228.767 16.884 228.731 12.456 228.623 8.064H233.987L233.915 10.836C235.067 8.82 236.903 7.632 239.351 7.632ZM237.659 23.292C240.287 23.292 241.619 21.096 241.619 17.568C241.619 14.04 240.323 11.808 237.659 11.808C234.995 11.808 233.699 13.824 233.699 17.388C233.699 21.168 235.139 23.292 237.659 23.292ZM260.601 23.148L261.249 26.712C260.025 27.108 258.657 27.468 256.821 27.468C252.177 27.468 251.709 24.84 251.709 21.996V12.06H248.937V8.064H251.889V3.6L256.965 1.332V8.064H260.817V12.06H256.965V21.24C256.965 22.68 257.037 23.724 258.333 23.724C259.017 23.724 259.701 23.544 260.601 23.148ZM272.494 27.468C266.158 27.468 262.882 23.328 262.882 17.568C262.882 11.808 266.158 7.632 272.494 7.632C278.83 7.632 282.07 11.808 282.07 17.568C282.07 23.328 278.83 27.468 272.494 27.468ZM272.494 23.292C275.194 23.292 276.742 21.204 276.742 17.568C276.742 13.896 275.194 11.808 272.494 11.808C269.794 11.808 268.246 13.896 268.246 17.568C268.246 21.204 269.794 23.292 272.494 23.292ZM17.972 56.416L24.236 67H17.576L15.308 62.68L12.392 57.532H7.352L7.46 67H1.7C1.772 62.716 1.808 58.396 1.808 53.5C1.808 49.828 1.772 45.508 1.7 41.224H14.264C19.664 41.224 22.868 44.14 22.868 49C22.868 52.708 21.104 55.3 17.972 56.416ZM13.076 45.832H7.424C7.388 48.424 7.352 50.944 7.352 53.212H12.716C15.56 53.212 17.072 51.88 17.072 49.504C17.072 47.128 15.56 45.796 13.076 45.832ZM35.0489 47.632C40.8809 47.632 44.1929 51.376 43.9409 57.496L43.9049 58.396H30.6209C30.8729 61.528 32.4569 63.292 35.0129 63.292C36.9569 63.292 38.4329 62.392 39.0449 60.808L43.8689 61.564C42.6809 65.236 39.3689 67.468 35.0849 67.468C29.0729 67.468 25.4369 63.724 25.4369 57.604C25.4369 51.412 29.0729 47.632 35.0489 47.632ZM30.8369 55.012H38.8289C38.4329 52.6 37.0649 51.268 34.9769 51.268C32.8169 51.268 31.3769 52.6 30.8369 55.012ZM65.2816 67H59.8456C59.9176 63.184 59.9176 59.692 59.9176 55.804C59.9176 53.14 59.0536 51.808 56.7856 51.808C54.3016 51.808 52.8976 53.68 52.8976 56.164V67H47.4976C47.5336 63.832 47.5696 60.664 47.5696 57.496C47.5696 54.4 47.5336 51.196 47.4976 48.064H53.0056L52.8976 51.16C54.1216 48.892 56.3536 47.632 59.0176 47.632C63.8416 47.632 65.2456 50.836 65.2456 54.76C65.2456 58.756 65.2096 62.86 65.2816 67ZM87.8261 67H82.4261L82.1381 63.652C80.9861 65.992 79.0781 67.468 76.5581 67.468C71.6621 67.468 68.8901 63.04 68.8901 57.568C68.8901 52.096 71.6261 47.632 76.5221 47.632C78.9341 47.632 80.7701 48.82 81.9581 50.836L82.0301 48.064H87.2861C87.2141 51.736 87.1781 54.364 87.1781 57.316C87.1781 60.52 87.4301 63.472 87.8261 67ZM78.2141 63.292C80.7341 63.292 82.1741 61.168 82.1741 57.388C82.1741 53.824 80.8781 51.808 78.2141 51.808C75.5501 51.808 74.2541 54.04 74.2541 57.568C74.2541 61.096 75.5861 63.292 78.2141 63.292ZM91.7945 45.652C91.8305 44.932 91.8305 44.14 91.8305 43.42C91.8305 42.7 91.8305 41.944 91.7945 41.224H97.4465C97.4105 41.944 97.4105 42.7 97.4105 43.42C97.4105 44.14 97.4105 44.932 97.4465 45.652H91.7945ZM91.9025 67C91.9745 63.832 91.9745 60.664 91.9745 57.496C91.9745 54.4 91.9385 51.196 91.9025 48.064H97.3745C97.3385 51.196 97.3025 54.4 97.3025 57.496C97.3025 60.664 97.3025 63.832 97.3745 67H91.9025ZM110.2 67.468C105.916 67.468 102.028 65.848 101.02 62.104L105.952 60.988C106.564 62.932 108.328 63.616 110.271 63.616C111.928 63.616 113.296 63.112 113.296 61.852C113.296 60.52 111.82 59.944 109.444 59.368L106.996 58.756C103.756 57.964 101.416 56.308 101.416 53.284C101.416 49.432 105.088 47.632 109.768 47.632C113.836 47.632 116.752 49.18 118.12 52.06L113.548 53.464C112.792 52.132 111.316 51.484 109.444 51.484C108.076 51.484 106.492 51.916 106.492 53.068C106.492 54.112 107.68 54.4 109.48 54.832L112.576 55.588C115.06 56.2 118.372 57.604 118.372 61.564C118.372 65.452 114.88 67.468 110.2 67.468ZM129.887 67.468C125.603 67.468 121.715 65.848 120.707 62.104L125.639 60.988C126.251 62.932 128.015 63.616 129.959 63.616C131.615 63.616 132.983 63.112 132.983 61.852C132.983 60.52 131.507 59.944 129.131 59.368L126.683 58.756C123.443 57.964 121.103 56.308 121.103 53.284C121.103 49.432 124.775 47.632 129.455 47.632C133.523 47.632 136.439 49.18 137.807 52.06L133.235 53.464C132.479 52.132 131.003 51.484 129.131 51.484C127.763 51.484 126.179 51.916 126.179 53.068C126.179 54.112 127.367 54.4 129.167 54.832L132.263 55.588C134.747 56.2 138.059 57.604 138.059 61.564C138.059 65.452 134.567 67.468 129.887 67.468ZM159.475 67H154.075L153.787 63.652C152.635 65.992 150.727 67.468 148.207 67.468C143.311 67.468 140.539 63.04 140.539 57.568C140.539 52.096 143.275 47.632 148.171 47.632C150.583 47.632 152.419 48.82 153.607 50.836L153.679 48.064H158.935C158.863 51.736 158.827 54.364 158.827 57.316C158.827 60.52 159.079 63.472 159.475 67ZM149.863 63.292C152.383 63.292 153.823 61.168 153.823 57.388C153.823 53.824 152.527 51.808 149.863 51.808C147.199 51.808 145.903 54.04 145.903 57.568C145.903 61.096 147.235 63.292 149.863 63.292ZM181.227 67H175.791C175.863 63.184 175.863 59.692 175.863 55.804C175.863 53.14 174.999 51.808 172.731 51.808C170.247 51.808 168.843 53.68 168.843 56.164V67H163.443C163.479 63.832 163.515 60.664 163.515 57.496C163.515 54.4 163.479 51.196 163.443 48.064H168.951L168.843 51.16C170.067 48.892 172.299 47.632 174.963 47.632C179.787 47.632 181.191 50.836 181.191 54.76C181.191 58.756 181.155 62.86 181.227 67ZM194.519 67.468C188.507 67.468 184.835 63.724 184.835 57.568C184.835 51.376 188.471 47.632 194.447 47.632C199.163 47.632 202.223 50.044 202.979 54.256L197.939 55.264C197.543 53.068 196.247 51.844 194.303 51.844C191.711 51.844 190.199 53.932 190.199 57.568C190.199 61.204 191.711 63.292 194.375 63.292C196.391 63.292 197.687 61.996 198.047 59.728L203.123 60.664C202.403 64.984 199.307 67.468 194.519 67.468ZM215.154 47.632C220.986 47.632 224.298 51.376 224.046 57.496L224.01 58.396H210.726C210.978 61.528 212.562 63.292 215.118 63.292C217.062 63.292 218.538 62.392 219.15 60.808L223.974 61.564C222.786 65.236 219.474 67.468 215.19 67.468C209.178 67.468 205.542 63.724 205.542 57.604C205.542 51.412 209.178 47.632 215.154 47.632ZM210.942 55.012H218.934C218.538 52.6 217.17 51.268 215.082 51.268C212.922 51.268 211.482 52.6 210.942 55.012ZM19.808 102.32L20.384 107H1.7C1.772 102.716 1.808 98.396 1.808 93.5C1.808 89.828 1.772 85.508 1.7 81.224H19.952L19.376 85.904H7.424C7.388 87.848 7.352 89.72 7.352 91.52H19.196V96.2H7.352C7.352 98.324 7.388 100.34 7.424 102.32H19.808ZM42.2979 107H36.3219L31.9299 99.764L27.6459 107H21.6699L28.2579 96.992L22.1379 88.064H28.1139L31.9659 94.58L35.6379 88.064H41.6139L35.6379 97.136L42.2979 107ZM54.9913 87.632C59.8873 87.632 62.6233 92.096 62.6233 97.568C62.6233 103.04 59.8513 107.468 54.9553 107.468C52.5433 107.468 50.6713 106.1 49.5193 103.94V114.128H44.2633C44.3713 109.844 44.4072 105.56 44.4072 101.276C44.4072 96.884 44.3713 92.456 44.2633 88.064H49.6273L49.5553 90.836C50.7073 88.82 52.5433 87.632 54.9913 87.632ZM53.2993 103.292C55.9273 103.292 57.2593 101.096 57.2593 97.568C57.2593 94.04 55.9633 91.808 53.2993 91.808C50.6353 91.808 49.3393 93.824 49.3393 97.388C49.3393 101.168 50.7793 103.292 53.2993 103.292ZM66.8814 107C66.4494 103.724 66.4134 100.844 66.4134 96.632C66.4134 91.52 66.4134 85.508 66.3414 81.224H71.7774C71.7054 85.508 71.7054 91.52 71.7054 96.632C71.7054 100.844 71.8134 103.724 72.2814 107H66.8814ZM85.0763 107.468C78.7403 107.468 75.4643 103.328 75.4643 97.568C75.4643 91.808 78.7403 87.632 85.0763 87.632C91.4123 87.632 94.6523 91.808 94.6523 97.568C94.6523 103.328 91.4123 107.468 85.0763 107.468ZM85.0763 103.292C87.7763 103.292 89.3243 101.204 89.3243 97.568C89.3243 93.896 87.7763 91.808 85.0763 91.808C82.3763 91.808 80.8283 93.896 80.8283 97.568C80.8283 101.204 82.3763 103.292 85.0763 103.292ZM103.769 92.276C104.993 89.252 107.333 87.668 110.357 87.632V93.032C105.893 92.636 103.769 94.724 103.769 99.44V107H98.3687C98.4047 103.832 98.4407 100.664 98.4407 97.496C98.4407 94.4 98.4047 91.196 98.3687 88.064H103.877L103.769 91.628V92.276ZM121.639 87.632C127.471 87.632 130.783 91.376 130.531 97.496L130.495 98.396H117.211C117.463 101.528 119.047 103.292 121.603 103.292C123.547 103.292 125.023 102.392 125.635 100.808L130.459 101.564C129.271 105.236 125.959 107.468 121.675 107.468C115.663 107.468 112.027 103.724 112.027 97.604C112.027 91.412 115.663 87.632 121.639 87.632ZM117.427 95.012H125.419C125.023 92.6 123.655 91.268 121.567 91.268C119.407 91.268 117.967 92.6 117.427 95.012ZM159.895 93.68C163.603 94.508 165.691 96.704 165.691 99.98C165.691 104.336 162.523 107 157.159 107H143.731C143.803 102.716 143.839 98.396 143.839 93.5C143.839 89.828 143.803 85.508 143.731 81.224H156.079C161.299 81.224 164.395 83.744 164.395 87.956C164.395 90.836 162.775 92.852 159.895 93.68ZM154.315 85.472H149.455C149.419 87.596 149.383 89.648 149.383 91.592H154.963C157.195 91.592 158.671 90.476 158.671 88.532C158.671 86.588 157.195 85.472 154.315 85.472ZM155.395 102.716C158.095 102.716 159.751 101.492 159.751 99.404C159.751 97.316 158.095 96.092 155.071 96.092H149.383C149.383 98.396 149.419 100.592 149.455 102.716H155.395ZM178.205 107.468C171.869 107.468 168.593 103.328 168.593 97.568C168.593 91.808 171.869 87.632 178.205 87.632C184.541 87.632 187.781 91.808 187.781 97.568C187.781 103.328 184.541 107.468 178.205 107.468ZM178.205 103.292C180.905 103.292 182.453 101.204 182.453 97.568C182.453 93.896 180.905 91.808 178.205 91.808C175.505 91.808 173.957 93.896 173.957 97.568C173.957 101.204 175.505 103.292 178.205 103.292ZM209.822 107H204.422L204.062 103.256C202.946 105.956 200.57 107.432 197.762 107.432C192.902 107.432 191.534 104.228 191.534 100.304C191.534 96.308 191.57 92.204 191.498 88.064H196.934C196.862 91.88 196.862 95.732 196.862 99.26C196.862 101.924 197.726 103.256 199.994 103.256C202.478 103.256 203.846 101.204 203.846 98.468V88.064H209.282C209.174 91.736 209.174 94.364 209.174 97.496C209.174 100.7 209.426 103.292 209.822 107ZM231.641 107H226.205C226.277 103.184 226.277 99.692 226.277 95.804C226.277 93.14 225.413 91.808 223.145 91.808C220.661 91.808 219.257 93.68 219.257 96.164V107H213.857C213.893 103.832 213.929 100.664 213.929 97.496C213.929 94.4 213.893 91.196 213.857 88.064H219.365L219.257 91.16C220.481 88.892 222.713 87.632 225.377 87.632C230.201 87.632 231.605 90.836 231.605 94.76C231.605 98.756 231.569 102.86 231.641 107ZM254.077 107H248.713L248.389 103.868C247.237 106.064 245.365 107.468 242.917 107.468C238.021 107.468 235.249 103.04 235.249 97.568C235.249 92.096 237.985 87.632 242.881 87.632C245.293 87.632 247.129 88.82 248.281 90.8V81.224H253.573C253.465 85.544 253.393 89.792 253.393 94.112C253.393 98.612 253.537 102.392 254.077 107ZM244.573 103.292C247.093 103.292 248.533 101.168 248.533 97.388C248.533 93.824 247.237 91.808 244.573 91.808C241.909 91.808 240.613 94.04 240.613 97.568C240.613 101.096 241.945 103.292 244.573 103.292ZM258.553 107C258.121 103.724 258.085 100.844 258.085 96.632C258.085 91.52 258.085 85.508 258.013 81.224H263.449C263.377 85.508 263.377 91.52 263.377 96.632C263.377 100.844 263.485 103.724 263.953 107H258.553ZM276.748 87.632C282.58 87.632 285.892 91.376 285.64 97.496L285.604 98.396H272.32C272.572 101.528 274.156 103.292 276.712 103.292C278.656 103.292 280.132 102.392 280.744 100.808L285.568 101.564C284.38 105.236 281.068 107.468 276.784 107.468C270.772 107.468 267.136 103.724 267.136 97.604C267.136 91.412 270.772 87.632 276.748 87.632ZM272.536 95.012H280.528C280.132 92.6 278.764 91.268 276.676 91.268C274.516 91.268 273.076 92.6 272.536 95.012ZM297.477 107.468C293.193 107.468 289.305 105.848 288.297 102.104L293.229 100.988C293.841 102.932 295.605 103.616 297.549 103.616C299.205 103.616 300.573 103.112 300.573 101.852C300.573 100.52 299.097 99.944 296.721 99.368L294.273 98.756C291.033 97.964 288.693 96.308 288.693 93.284C288.693 89.432 292.365 87.632 297.045 87.632C301.113 87.632 304.029 89.18 305.397 92.06L300.825 93.464C300.069 92.132 298.593 91.484 296.721 91.484C295.353 91.484 293.769 91.916 293.769 93.068C293.769 94.112 294.957 94.4 296.757 94.832L299.853 95.588C302.337 96.2 305.649 97.604 305.649 101.564C305.649 105.452 302.157 107.468 297.477 107.468ZM317.164 107.468C312.88 107.468 308.992 105.848 307.984 102.104L312.916 100.988C313.528 102.932 315.292 103.616 317.236 103.616C318.892 103.616 320.26 103.112 320.26 101.852C320.26 100.52 318.784 99.944 316.408 99.368L313.96 98.756C310.72 97.964 308.38 96.308 308.38 93.284C308.38 89.432 312.052 87.632 316.732 87.632C320.8 87.632 323.716 89.18 325.084 92.06L320.512 93.464C319.756 92.132 318.28 91.484 316.408 91.484C315.04 91.484 313.456 91.916 313.456 93.068C313.456 94.112 314.644 94.4 316.444 94.832L319.54 95.588C322.024 96.2 325.336 97.604 325.336 101.564C325.336 105.452 321.844 107.468 317.164 107.468ZM13.832 121.224C19.592 121.224 22.58 124.536 22.58 129.576C22.58 134.616 19.592 137.928 13.832 137.928H7.352L7.46 147H1.7C1.772 142.716 1.808 138.396 1.808 133.5C1.808 129.828 1.772 125.508 1.7 121.224H13.832ZM12.608 133.356C15.38 133.356 16.82 131.988 16.82 129.576C16.82 127.164 15.38 125.796 12.608 125.796H7.424C7.388 128.46 7.352 131.016 7.352 133.356H12.608ZM33.8185 147.468C27.4825 147.468 24.2065 143.328 24.2065 137.568C24.2065 131.808 27.4825 127.632 33.8185 127.632C40.1545 127.632 43.3945 131.808 43.3945 137.568C43.3945 143.328 40.1545 147.468 33.8185 147.468ZM33.8185 143.292C36.5185 143.292 38.0665 141.204 38.0665 137.568C38.0665 133.896 36.5185 131.808 33.8185 131.808C31.1185 131.808 29.5705 133.896 29.5705 137.568C29.5705 141.204 31.1185 143.292 33.8185 143.292ZM55.3909 147.468C51.1069 147.468 47.2189 145.848 46.2109 142.104L51.1429 140.988C51.7549 142.932 53.5189 143.616 55.4629 143.616C57.1189 143.616 58.4869 143.112 58.4869 141.852C58.4869 140.52 57.0109 139.944 54.6349 139.368L52.1869 138.756C48.9469 137.964 46.6069 136.308 46.6069 133.284C46.6069 129.432 50.2789 127.632 54.9589 127.632C59.0269 127.632 61.9429 129.18 63.3109 132.06L58.7389 133.464C57.9829 132.132 56.5069 131.484 54.6349 131.484C53.2669 131.484 51.6829 131.916 51.6829 133.068C51.6829 134.112 52.8709 134.4 54.6709 134.832L57.7669 135.588C60.2509 136.2 63.5629 137.604 63.5629 141.564C63.5629 145.452 60.0709 147.468 55.3909 147.468ZM75.0784 147.468C70.7944 147.468 66.9064 145.848 65.8984 142.104L70.8304 140.988C71.4424 142.932 73.2064 143.616 75.1504 143.616C76.8064 143.616 78.1744 143.112 78.1744 141.852C78.1744 140.52 76.6984 139.944 74.3224 139.368L71.8744 138.756C68.6344 137.964 66.2944 136.308 66.2944 133.284C66.2944 129.432 69.9664 127.632 74.6464 127.632C78.7144 127.632 81.6304 129.18 82.9984 132.06L78.4264 133.464C77.6704 132.132 76.1944 131.484 74.3224 131.484C72.9544 131.484 71.3704 131.916 71.3704 133.068C71.3704 134.112 72.5584 134.4 74.3584 134.832L77.4544 135.588C79.9384 136.2 83.2504 137.604 83.2504 141.564C83.2504 145.452 79.7584 147.468 75.0784 147.468ZM86.4859 125.652C86.5219 124.932 86.5219 124.14 86.5219 123.42C86.5219 122.7 86.5219 121.944 86.4859 121.224H92.1379C92.1019 121.944 92.1019 122.7 92.1019 123.42C92.1019 124.14 92.1019 124.932 92.1379 125.652H86.4859ZM86.5939 147C86.6659 143.832 86.6659 140.664 86.6659 137.496C86.6659 134.4 86.6299 131.196 86.5939 128.064H92.0659C92.0299 131.196 91.9939 134.4 91.9939 137.496C91.9939 140.664 91.9939 143.832 92.0659 147H86.5939ZM107.267 127.632C112.163 127.632 114.899 132.096 114.899 137.568C114.899 143.04 112.127 147.468 107.231 147.468C104.783 147.468 102.911 146.064 101.759 143.868L101.435 147H96.0709C96.6109 142.392 96.7549 138.612 96.7549 134.112C96.7549 129.792 96.6829 125.544 96.5749 121.224H101.867V130.8C103.019 128.82 104.855 127.632 107.267 127.632ZM105.575 143.292C108.203 143.292 109.535 141.096 109.535 137.568C109.535 134.04 108.239 131.808 105.575 131.808C102.911 131.808 101.615 133.824 101.615 137.388C101.615 141.168 103.055 143.292 105.575 143.292ZM118.619 125.652C118.655 124.932 118.655 124.14 118.655 123.42C118.655 122.7 118.655 121.944 118.619 121.224H124.271C124.235 121.944 124.235 122.7 124.235 123.42C124.235 124.14 124.235 124.932 124.271 125.652H118.619ZM118.727 147C118.799 143.832 118.799 140.664 118.799 137.496C118.799 134.4 118.763 131.196 118.727 128.064H124.199C124.163 131.196 124.127 134.4 124.127 137.496C124.127 140.664 124.127 143.832 124.199 147H118.727ZM129.284 147C128.852 143.724 128.816 140.844 128.816 136.632C128.816 131.52 128.816 125.508 128.744 121.224H134.18C134.108 125.508 134.108 131.52 134.108 136.632C134.108 140.844 134.216 143.724 134.684 147H129.284ZM138.623 125.652C138.659 124.932 138.659 124.14 138.659 123.42C138.659 122.7 138.659 121.944 138.623 121.224H144.275C144.239 121.944 144.239 122.7 144.239 123.42C144.239 124.14 144.239 124.932 144.275 125.652H138.623ZM138.731 147C138.803 143.832 138.803 140.664 138.803 137.496C138.803 134.4 138.767 131.196 138.731 128.064H144.203C144.167 131.196 144.131 134.4 144.131 137.496C144.131 140.664 144.131 143.832 144.203 147H138.731ZM158.648 143.148L159.296 146.712C158.072 147.108 156.704 147.468 154.868 147.468C150.224 147.468 149.756 144.84 149.756 141.996V132.06H146.984V128.064H149.936V123.6L155.012 121.332V128.064H158.864V132.06H155.012V141.24C155.012 142.68 155.084 143.724 156.38 143.724C157.064 143.724 157.748 143.544 158.648 143.148ZM161.685 125.652C161.721 124.932 161.721 124.14 161.721 123.42C161.721 122.7 161.721 121.944 161.685 121.224H167.337C167.301 121.944 167.301 122.7 167.301 123.42C167.301 124.14 167.301 124.932 167.337 125.652H161.685ZM161.793 147C161.865 143.832 161.865 140.664 161.865 137.496C161.865 134.4 161.829 131.196 161.793 128.064H167.265C167.229 131.196 167.193 134.4 167.193 137.496C167.193 140.664 167.193 143.832 167.265 147H161.793ZM180.666 127.632C186.498 127.632 189.81 131.376 189.558 137.496L189.522 138.396H176.238C176.49 141.528 178.074 143.292 180.63 143.292C182.574 143.292 184.05 142.392 184.662 140.808L189.486 141.564C188.298 145.236 184.986 147.468 180.702 147.468C174.69 147.468 171.054 143.724 171.054 137.604C171.054 131.412 174.69 127.632 180.666 127.632ZM176.454 135.012H184.446C184.05 132.6 182.682 131.268 180.594 131.268C178.434 131.268 176.994 132.6 176.454 135.012ZM201.395 147.468C197.111 147.468 193.223 145.848 192.215 142.104L197.147 140.988C197.759 142.932 199.523 143.616 201.467 143.616C203.123 143.616 204.491 143.112 204.491 141.852C204.491 140.52 203.015 139.944 200.639 139.368L198.191 138.756C194.951 137.964 192.611 136.308 192.611 133.284C192.611 129.432 196.283 127.632 200.963 127.632C205.031 127.632 207.947 129.18 209.315 132.06L204.743 133.464C203.987 132.132 202.511 131.484 200.639 131.484C199.271 131.484 197.687 131.916 197.687 133.068C197.687 134.112 198.875 134.4 200.675 134.832L203.771 135.588C206.255 136.2 209.567 137.604 209.567 141.564C209.567 145.452 206.075 147.468 201.395 147.468Z" fill="white"/>
</svg>
