<svg width="408" height="267" viewBox="0 0 408 267" fill="none" xmlns="http://www.w3.org/2000/svg">
<path d="M16.888 38.624C10.024 38.624 3.68 35.972 0.924 30.356L7.32 26.04C9.452 30.304 13.3 31.812 17.304 31.812C21.048 31.812 23.7 30.46 23.7 27.756C23.7 24.584 20.008 23.908 16.94 23.076L12.832 21.984C9.764 21.152 1.912 19.072 1.912 11.012C1.912 4.356 7.32 0.143998 16.212 0.143998C22.764 0.143998 28.38 2.484 31.5 7.268L25.26 11.636C22.556 8.308 19.436 6.956 15.796 6.956C12.156 6.956 10.18 8.36 10.18 10.544C10.18 13.092 12.988 13.924 16.42 14.86L20.58 16.004C25 17.2 31.968 19.28 31.968 27.08C31.968 34.724 25.26 38.624 16.888 38.624ZM51.4107 32.436L52.3467 37.584C50.5787 38.156 48.6027 38.676 45.9507 38.676C39.2427 38.676 38.5667 34.88 38.5667 30.772V16.42H34.5627V10.648H38.8267V4.2L46.1587 0.923997V10.648H51.7227V16.42H46.1587V29.68C46.1587 31.76 46.2627 33.268 48.1347 33.268C49.1227 33.268 50.1107 33.008 51.4107 32.436ZM68.5902 10.024C77.0142 10.024 81.7982 15.432 81.4342 24.272L81.3822 25.572H62.1942C62.5582 30.096 64.8462 32.644 68.5382 32.644C71.3462 32.644 73.4782 31.344 74.3622 29.056L81.3302 30.148C79.6142 35.452 74.8302 38.676 68.6422 38.676C59.9582 38.676 54.7062 33.268 54.7062 24.428C54.7062 15.484 59.9582 10.024 68.5902 10.024ZM62.5062 20.684H74.0502C73.4782 17.2 71.5022 15.276 68.4862 15.276C65.3662 15.276 63.2862 17.2 62.5062 20.684ZM102.068 10.024C109.14 10.024 113.092 16.472 113.092 24.376C113.092 32.28 109.088 38.676 102.016 38.676C98.5317 38.676 95.8277 36.7 94.1637 33.58V48.296H86.5717C86.7277 42.108 86.7797 35.92 86.7797 29.732C86.7797 23.388 86.7277 16.992 86.5717 10.648H94.3197L94.2157 14.652C95.8797 11.74 98.5317 10.024 102.068 10.024ZM99.6237 32.644C103.42 32.644 105.344 29.472 105.344 24.376C105.344 19.28 103.472 16.056 99.6237 16.056C95.7757 16.056 93.9037 18.968 93.9037 24.116C93.9037 29.576 95.9837 32.644 99.6237 32.644ZM132.392 38C132.496 31.812 132.548 25.572 132.548 18.5C132.548 13.196 132.496 6.956 132.392 0.767999H140.712C140.66 6.956 140.556 13.196 140.556 18.5C140.556 25.572 140.66 31.812 140.712 38H132.392ZM173.502 38H165.65C165.754 32.488 165.754 27.444 165.754 21.828C165.754 17.98 164.506 16.056 161.23 16.056C157.642 16.056 155.614 18.76 155.614 22.348V38H147.814C147.866 33.424 147.918 28.848 147.918 24.272C147.918 19.8 147.866 15.172 147.814 10.648H155.77L155.614 15.12C157.382 11.844 160.606 10.024 164.454 10.024C171.422 10.024 173.45 14.652 173.45 20.32C173.45 26.092 173.398 32.02 173.502 38ZM194.106 32.436L195.042 37.584C193.274 38.156 191.298 38.676 188.646 38.676C181.938 38.676 181.262 34.88 181.262 30.772V16.42H177.258V10.648H181.522V4.2L188.854 0.923997V10.648H194.418V16.42H188.854V29.68C188.854 31.76 188.958 33.268 190.83 33.268C191.818 33.268 192.806 33.008 194.106 32.436ZM211.286 38.676C202.134 38.676 197.402 32.696 197.402 24.376C197.402 16.056 202.134 10.024 211.286 10.024C220.438 10.024 225.118 16.056 225.118 24.376C225.118 32.696 220.438 38.676 211.286 38.676ZM211.286 32.644C215.186 32.644 217.422 29.628 217.422 24.376C217.422 19.072 215.186 16.056 211.286 16.056C207.386 16.056 205.15 19.072 205.15 24.376C205.15 29.628 207.386 32.644 211.286 32.644ZM259.964 38.676C249.72 38.676 242.908 31.24 242.908 19.384C242.908 7.528 249.72 0.0919983 259.964 0.0919983C268.44 0.0919983 274.368 5.136 276.136 13.664L268.076 15.276C267.036 10.18 264.072 7.112 259.964 7.112C254.816 7.112 251.176 11.74 251.176 19.384C251.176 26.872 254.816 31.656 259.964 31.656C264.28 31.656 267.296 28.64 268.336 23.232L276.448 24.532C274.836 33.424 268.856 38.676 259.964 38.676ZM289.016 16.732C290.784 12.364 294.164 10.076 298.532 10.024V17.824C292.084 17.252 289.016 20.268 289.016 27.08V38H281.216C281.268 33.424 281.32 28.848 281.32 24.272C281.32 19.8 281.268 15.172 281.216 10.648H289.172L289.016 15.796V16.732ZM320.029 10.648H327.777L316.909 38L315.869 40.548C314.725 43.356 312.593 48.296 306.145 48.296C304.793 48.296 302.869 48.088 300.893 47.62L300.373 41.9C302.193 42.42 303.805 42.576 304.741 42.576C307.653 42.576 308.537 40.964 309.421 38.936L309.837 38L298.552 10.648H306.717L311.657 24.272C312.176 25.676 312.593 27.184 313.321 31.136C314.1 27.184 314.569 25.676 315.037 24.376L320.029 10.648ZM346.173 10.024C353.245 10.024 357.197 16.472 357.197 24.376C357.197 32.28 353.193 38.676 346.121 38.676C342.637 38.676 339.933 36.7 338.269 33.58V48.296H330.677C330.833 42.108 330.885 35.92 330.885 29.732C330.885 23.388 330.833 16.992 330.677 10.648H338.425L338.321 14.652C339.985 11.74 342.637 10.024 346.173 10.024ZM343.729 32.644C347.525 32.644 349.449 29.472 349.449 24.376C349.449 19.28 347.577 16.056 343.729 16.056C339.881 16.056 338.009 18.968 338.009 24.116C338.009 29.576 340.089 32.644 343.729 32.644ZM376.868 32.436L377.804 37.584C376.036 38.156 374.06 38.676 371.408 38.676C364.7 38.676 364.024 34.88 364.024 30.772V16.42H360.02V10.648H364.284V4.2L371.616 0.923997V10.648H377.18V16.42H371.616V29.68C371.616 31.76 371.72 33.268 373.592 33.268C374.58 33.268 375.568 33.008 376.868 32.436ZM394.047 38.676C384.895 38.676 380.163 32.696 380.163 24.376C380.163 16.056 384.895 10.024 394.047 10.024C403.199 10.024 407.879 16.056 407.879 24.376C407.879 32.696 403.199 38.676 394.047 38.676ZM394.047 32.644C397.947 32.644 400.183 29.628 400.183 24.376C400.183 19.072 397.947 16.056 394.047 16.056C390.147 16.056 387.911 19.072 387.911 24.376C387.911 29.628 390.147 32.644 394.047 32.644ZM26.404 79.712L35.452 95H25.832L22.556 88.76L18.344 81.324H11.064L11.22 95H2.9C3.004 88.812 3.056 82.572 3.056 75.5C3.056 70.196 3.004 63.956 2.9 57.768H21.048C28.848 57.768 33.476 61.98 33.476 69C33.476 74.356 30.928 78.1 26.404 79.712ZM19.332 64.424H11.168C11.116 68.168 11.064 71.808 11.064 75.084H18.812C22.92 75.084 25.104 73.16 25.104 69.728C25.104 66.296 22.92 64.372 19.332 64.424ZM51.0707 67.024C59.4947 67.024 64.2787 72.432 63.9147 81.272L63.8627 82.572H44.6747C45.0387 87.096 47.3267 89.644 51.0187 89.644C53.8267 89.644 55.9587 88.344 56.8427 86.056L63.8107 87.148C62.0947 92.452 57.3107 95.676 51.1227 95.676C42.4387 95.676 37.1867 90.268 37.1867 81.428C37.1867 72.484 42.4387 67.024 51.0707 67.024ZM44.9867 77.684H56.5307C55.9587 74.2 53.9827 72.276 50.9667 72.276C47.8467 72.276 45.7667 74.2 44.9867 77.684ZM94.7401 95H86.8881C86.9921 89.488 86.9921 84.444 86.9921 78.828C86.9921 74.98 85.7441 73.056 82.4681 73.056C78.8801 73.056 76.8521 75.76 76.8521 79.348V95H69.0521C69.1041 90.424 69.1561 85.848 69.1561 81.272C69.1561 76.8 69.1041 72.172 69.0521 67.648H77.0081L76.8521 72.12C78.6201 68.844 81.8441 67.024 85.6921 67.024C92.6601 67.024 94.6881 71.652 94.6881 77.32C94.6881 83.092 94.6361 89.02 94.7401 95ZM127.304 95H119.504L119.088 90.164C117.424 93.544 114.668 95.676 111.028 95.676C103.956 95.676 99.9523 89.28 99.9523 81.376C99.9523 73.472 103.904 67.024 110.976 67.024C114.46 67.024 117.112 68.74 118.828 71.652L118.932 67.648H126.524C126.42 72.952 126.368 76.748 126.368 81.012C126.368 85.64 126.732 89.904 127.304 95ZM113.42 89.644C117.06 89.644 119.14 86.576 119.14 81.116C119.14 75.968 117.268 73.056 113.42 73.056C109.572 73.056 107.7 76.28 107.7 81.376C107.7 86.472 109.624 89.644 113.42 89.644ZM133.037 64.164C133.089 63.124 133.089 61.98 133.089 60.94C133.089 59.9 133.089 58.808 133.037 57.768H141.201C141.149 58.808 141.149 59.9 141.149 60.94C141.149 61.98 141.149 63.124 141.201 64.164H133.037ZM133.193 95C133.297 90.424 133.297 85.848 133.297 81.272C133.297 76.8 133.244 72.172 133.193 67.648H141.097C141.045 72.172 140.993 76.8 140.993 81.272C140.993 85.848 140.993 90.424 141.097 95H133.193ZM159.622 95.676C153.434 95.676 147.818 93.336 146.362 87.928L153.486 86.316C154.37 89.124 156.918 90.112 159.725 90.112C162.118 90.112 164.094 89.384 164.094 87.564C164.094 85.64 161.962 84.808 158.53 83.976L154.994 83.092C150.314 81.948 146.934 79.556 146.934 75.188C146.934 69.624 152.238 67.024 158.998 67.024C164.874 67.024 169.086 69.26 171.062 73.42L164.458 75.448C163.366 73.524 161.234 72.588 158.53 72.588C156.554 72.588 154.266 73.212 154.266 74.876C154.266 76.384 155.982 76.8 158.582 77.424L163.054 78.516C166.642 79.4 171.426 81.428 171.426 87.148C171.426 92.764 166.382 95.676 159.622 95.676ZM188.059 95.676C181.871 95.676 176.255 93.336 174.799 87.928L181.923 86.316C182.807 89.124 185.355 90.112 188.163 90.112C190.555 90.112 192.531 89.384 192.531 87.564C192.531 85.64 190.399 84.808 186.967 83.976L183.431 83.092C178.751 81.948 175.371 79.556 175.371 75.188C175.371 69.624 180.675 67.024 187.435 67.024C193.311 67.024 197.523 69.26 199.499 73.42L192.895 75.448C191.803 73.524 189.671 72.588 186.967 72.588C184.991 72.588 182.703 73.212 182.703 74.876C182.703 76.384 184.419 76.8 187.019 77.424L191.491 78.516C195.079 79.4 199.863 81.428 199.863 87.148C199.863 92.764 194.819 95.676 188.059 95.676ZM230.797 95H222.997L222.581 90.164C220.917 93.544 218.161 95.676 214.521 95.676C207.449 95.676 203.445 89.28 203.445 81.376C203.445 73.472 207.397 67.024 214.469 67.024C217.953 67.024 220.605 68.74 222.321 71.652L222.425 67.648H230.017C229.913 72.952 229.861 76.748 229.861 81.012C229.861 85.64 230.225 89.904 230.797 95ZM216.913 89.644C220.553 89.644 222.633 86.576 222.633 81.116C222.633 75.968 220.761 73.056 216.913 73.056C213.065 73.056 211.193 76.28 211.193 81.376C211.193 86.472 213.117 89.644 216.913 89.644ZM262.217 95H254.365C254.469 89.488 254.469 84.444 254.469 78.828C254.469 74.98 253.221 73.056 249.945 73.056C246.357 73.056 244.329 75.76 244.329 79.348V95H236.529C236.581 90.424 236.633 85.848 236.633 81.272C236.633 76.8 236.581 72.172 236.529 67.648H244.485L244.329 72.12C246.097 68.844 249.321 67.024 253.169 67.024C260.137 67.024 262.165 71.652 262.165 77.32C262.165 83.092 262.113 89.02 262.217 95ZM281.417 95.676C272.733 95.676 267.429 90.268 267.429 81.376C267.429 72.432 272.681 67.024 281.313 67.024C288.125 67.024 292.545 70.508 293.637 76.592L286.357 78.048C285.785 74.876 283.913 73.108 281.105 73.108C277.361 73.108 275.177 76.124 275.177 81.376C275.177 86.628 277.361 89.644 281.209 89.644C284.121 89.644 285.993 87.772 286.513 84.496L293.845 85.848C292.805 92.088 288.333 95.676 281.417 95.676ZM311.223 67.024C319.647 67.024 324.431 72.432 324.067 81.272L324.015 82.572H304.827C305.191 87.096 307.479 89.644 311.171 89.644C313.979 89.644 316.111 88.344 316.995 86.056L323.963 87.148C322.247 92.452 317.463 95.676 311.275 95.676C302.591 95.676 297.339 90.268 297.339 81.428C297.339 72.484 302.591 67.024 311.223 67.024ZM305.139 77.684H316.683C316.111 74.2 314.135 72.276 311.119 72.276C307.999 72.276 305.919 74.2 305.139 77.684ZM29.056 145.24L29.888 152H2.9C3.004 145.812 3.056 139.572 3.056 132.5C3.056 127.196 3.004 120.956 2.9 114.768H29.264L28.432 121.528H11.168C11.116 124.336 11.064 127.04 11.064 129.64H28.172V136.4H11.064C11.064 139.468 11.116 142.38 11.168 145.24H29.056ZM61.5414 152H52.9094L46.5654 141.548L40.3774 152H31.7454L41.2614 137.544L32.4214 124.648H41.0534L46.6174 134.06L51.9214 124.648H60.5534L51.9214 137.752L61.5414 152ZM79.8763 124.024C86.9483 124.024 90.9003 130.472 90.9003 138.376C90.9003 146.28 86.8963 152.676 79.8243 152.676C76.3403 152.676 73.6363 150.7 71.9723 147.58V162.296H64.3803C64.5363 156.108 64.5882 149.92 64.5882 143.732C64.5882 137.388 64.5363 130.992 64.3803 124.648H72.1283L72.0243 128.652C73.6883 125.74 76.3403 124.024 79.8763 124.024ZM77.4323 146.644C81.2283 146.644 83.1523 143.472 83.1523 138.376C83.1523 133.28 81.2803 130.056 77.4323 130.056C73.5843 130.056 71.7123 132.968 71.7123 138.116C71.7123 143.576 73.7923 146.644 77.4323 146.644ZM97.0509 152C96.4269 147.268 96.3749 143.108 96.3749 137.024C96.3749 129.64 96.3749 120.956 96.2709 114.768H104.123C104.019 120.956 104.019 129.64 104.019 137.024C104.019 143.108 104.175 147.268 104.851 152H97.0509ZM123.332 152.676C114.18 152.676 109.448 146.696 109.448 138.376C109.448 130.056 114.18 124.024 123.332 124.024C132.484 124.024 137.164 130.056 137.164 138.376C137.164 146.696 132.484 152.676 123.332 152.676ZM123.332 146.644C127.232 146.644 129.468 143.628 129.468 138.376C129.468 133.072 127.232 130.056 123.332 130.056C119.432 130.056 117.196 133.072 117.196 138.376C117.196 143.628 119.432 146.644 123.332 146.644ZM150.333 130.732C152.101 126.364 155.481 124.076 159.849 124.024V131.824C153.401 131.252 150.333 134.268 150.333 141.08V152H142.533C142.585 147.424 142.637 142.848 142.637 138.272C142.637 133.8 142.585 129.172 142.533 124.648H150.489L150.333 129.796V130.732ZM176.145 124.024C184.569 124.024 189.353 129.432 188.989 138.272L188.937 139.572H169.749C170.113 144.096 172.401 146.644 176.093 146.644C178.901 146.644 181.033 145.344 181.917 143.056L188.885 144.148C187.169 149.452 182.385 152.676 176.197 152.676C167.513 152.676 162.261 147.268 162.261 138.428C162.261 129.484 167.513 124.024 176.145 124.024ZM170.061 134.684H181.605C181.033 131.2 179.057 129.276 176.041 129.276C172.921 129.276 170.841 131.2 170.061 134.684ZM26.248 189.76C31.604 190.956 34.62 194.128 34.62 198.86C34.62 205.152 30.044 209 22.296 209H2.9C3.004 202.812 3.056 196.572 3.056 189.5C3.056 184.196 3.004 177.956 2.9 171.768H20.736C28.276 171.768 32.748 175.408 32.748 181.492C32.748 185.652 30.408 188.564 26.248 189.76ZM18.188 177.904H11.168C11.116 180.972 11.064 183.936 11.064 186.744H19.124C22.348 186.744 24.48 185.132 24.48 182.324C24.48 179.516 22.348 177.904 18.188 177.904ZM19.748 202.812C23.648 202.812 26.04 201.044 26.04 198.028C26.04 195.012 23.648 193.244 19.28 193.244H11.064C11.064 196.572 11.116 199.744 11.168 202.812H19.748ZM52.6957 209.676C43.5437 209.676 38.8117 203.696 38.8117 195.376C38.8117 187.056 43.5437 181.024 52.6957 181.024C61.8477 181.024 66.5277 187.056 66.5277 195.376C66.5277 203.696 61.8477 209.676 52.6957 209.676ZM52.6957 203.644C56.5957 203.644 58.8317 200.628 58.8317 195.376C58.8317 190.072 56.5957 187.056 52.6957 187.056C48.7957 187.056 46.5597 190.072 46.5597 195.376C46.5597 200.628 48.7957 203.644 52.6957 203.644ZM98.3639 209H90.5639L90.0439 203.592C88.4319 207.492 84.9999 209.624 80.9439 209.624C73.9239 209.624 71.9479 204.996 71.9479 199.328C71.9479 193.556 71.9999 187.628 71.8959 181.648H79.7479C79.6439 187.16 79.6439 192.724 79.6439 197.82C79.6439 201.668 80.8919 203.592 84.1679 203.592C87.7559 203.592 89.7319 200.628 89.7319 196.676V181.648H97.5839C97.4279 186.952 97.4279 190.748 97.4279 195.272C97.4279 199.9 97.7919 203.644 98.3639 209ZM129.881 209H122.029C122.133 203.488 122.133 198.444 122.133 192.828C122.133 188.98 120.885 187.056 117.609 187.056C114.021 187.056 111.993 189.76 111.993 193.348V209H104.193C104.245 204.424 104.297 199.848 104.297 195.272C104.297 190.8 104.245 186.172 104.193 181.648H112.149L111.993 186.12C113.761 182.844 116.985 181.024 120.833 181.024C127.801 181.024 129.829 185.652 129.829 191.32C129.829 197.092 129.777 203.02 129.881 209ZM162.289 209H154.541L154.073 204.476C152.409 207.648 149.705 209.676 146.169 209.676C139.097 209.676 135.093 203.28 135.093 195.376C135.093 187.472 139.045 181.024 146.117 181.024C149.601 181.024 152.253 182.74 153.917 185.6V171.768H161.561C161.405 178.008 161.301 184.144 161.301 190.384C161.301 196.884 161.509 202.344 162.289 209ZM148.561 203.644C152.201 203.644 154.281 200.576 154.281 195.116C154.281 189.968 152.409 187.056 148.561 187.056C144.713 187.056 142.841 190.28 142.841 195.376C142.841 200.472 144.765 203.644 148.561 203.644ZM168.754 209C168.13 204.268 168.078 200.108 168.078 194.024C168.078 186.64 168.078 177.956 167.974 171.768H175.826C175.722 177.956 175.722 186.64 175.722 194.024C175.722 200.108 175.878 204.268 176.554 209H168.754ZM195.036 181.024C203.46 181.024 208.244 186.432 207.88 195.272L207.828 196.572H188.64C189.004 201.096 191.292 203.644 194.984 203.644C197.792 203.644 199.924 202.344 200.808 200.056L207.776 201.148C206.06 206.452 201.276 209.676 195.088 209.676C186.404 209.676 181.152 204.268 181.152 195.428C181.152 186.484 186.404 181.024 195.036 181.024ZM188.952 191.684H200.496C199.924 188.2 197.948 186.276 194.932 186.276C191.812 186.276 189.732 188.2 188.952 191.684ZM224.977 209.676C218.789 209.676 213.173 207.336 211.717 201.928L218.841 200.316C219.725 203.124 222.273 204.112 225.081 204.112C227.473 204.112 229.449 203.384 229.449 201.564C229.449 199.64 227.317 198.808 223.885 197.976L220.349 197.092C215.669 195.948 212.289 193.556 212.289 189.188C212.289 183.624 217.593 181.024 224.353 181.024C230.229 181.024 234.441 183.26 236.417 187.42L229.813 189.448C228.721 187.524 226.589 186.588 223.885 186.588C221.909 186.588 219.621 187.212 219.621 188.876C219.621 190.384 221.337 190.8 223.937 191.424L228.409 192.516C231.997 193.4 236.781 195.428 236.781 201.148C236.781 206.764 231.737 209.676 224.977 209.676ZM253.414 209.676C247.226 209.676 241.61 207.336 240.154 201.928L247.278 200.316C248.162 203.124 250.71 204.112 253.518 204.112C255.91 204.112 257.886 203.384 257.886 201.564C257.886 199.64 255.754 198.808 252.322 197.976L248.786 197.092C244.106 195.948 240.726 193.556 240.726 189.188C240.726 183.624 246.03 181.024 252.79 181.024C258.666 181.024 262.878 183.26 264.854 187.42L258.25 189.448C257.158 187.524 255.026 186.588 252.322 186.588C250.346 186.588 248.058 187.212 248.058 188.876C248.058 190.384 249.774 190.8 252.374 191.424L256.846 192.516C260.434 193.4 265.218 195.428 265.218 201.148C265.218 206.764 260.174 209.676 253.414 209.676ZM20.424 228.768C28.744 228.768 33.06 233.552 33.06 240.832C33.06 248.112 28.744 252.896 20.424 252.896H11.064L11.22 266H2.9C3.004 259.812 3.056 253.572 3.056 246.5C3.056 241.196 3.004 234.956 2.9 228.768H20.424ZM18.656 246.292C22.66 246.292 24.74 244.316 24.74 240.832C24.74 237.348 22.66 235.372 18.656 235.372H11.168C11.116 239.22 11.064 242.912 11.064 246.292H18.656ZM49.2933 266.676C40.1413 266.676 35.4093 260.696 35.4093 252.376C35.4093 244.056 40.1413 238.024 49.2933 238.024C58.4453 238.024 63.1253 244.056 63.1253 252.376C63.1253 260.696 58.4453 266.676 49.2933 266.676ZM49.2933 260.644C53.1933 260.644 55.4293 257.628 55.4293 252.376C55.4293 247.072 53.1933 244.056 49.2933 244.056C45.3933 244.056 43.1573 247.072 43.1573 252.376C43.1573 257.628 45.3933 260.644 49.2933 260.644ZM80.4535 266.676C74.2655 266.676 68.6495 264.336 67.1935 258.928L74.3175 257.316C75.2015 260.124 77.7495 261.112 80.5575 261.112C82.9495 261.112 84.9255 260.384 84.9255 258.564C84.9255 256.64 82.7935 255.808 79.3615 254.976L75.8255 254.092C71.1455 252.948 67.7655 250.556 67.7655 246.188C67.7655 240.624 73.0695 238.024 79.8295 238.024C85.7055 238.024 89.9175 240.26 91.8935 244.42L85.2895 246.448C84.1975 244.524 82.0655 243.588 79.3615 243.588C77.3855 243.588 75.0975 244.212 75.0975 245.876C75.0975 247.384 76.8135 247.8 79.4135 248.424L83.8855 249.516C87.4735 250.4 92.2575 252.428 92.2575 258.148C92.2575 263.764 87.2135 266.676 80.4535 266.676ZM108.891 266.676C102.703 266.676 97.087 264.336 95.631 258.928L102.755 257.316C103.639 260.124 106.187 261.112 108.995 261.112C111.387 261.112 113.363 260.384 113.363 258.564C113.363 256.64 111.231 255.808 107.799 254.976L104.263 254.092C99.583 252.948 96.203 250.556 96.203 246.188C96.203 240.624 101.507 238.024 108.267 238.024C114.143 238.024 118.355 240.26 120.331 244.42L113.727 246.448C112.635 244.524 110.503 243.588 107.799 243.588C105.823 243.588 103.535 244.212 103.535 245.876C103.535 247.384 105.251 247.8 107.851 248.424L112.323 249.516C115.911 250.4 120.695 252.428 120.695 258.148C120.695 263.764 115.651 266.676 108.891 266.676ZM125.369 235.164C125.421 234.124 125.421 232.98 125.421 231.94C125.421 230.9 125.421 229.808 125.369 228.768H133.533C133.481 229.808 133.481 230.9 133.481 231.94C133.481 232.98 133.481 234.124 133.533 235.164H125.369ZM125.525 266C125.629 261.424 125.629 256.848 125.629 252.272C125.629 247.8 125.577 243.172 125.525 238.648H133.429C133.377 243.172 133.325 247.8 133.325 252.272C133.325 256.848 133.325 261.424 133.429 266H125.525ZM155.386 238.024C162.458 238.024 166.41 244.472 166.41 252.376C166.41 260.28 162.406 266.676 155.334 266.676C151.798 266.676 149.094 264.648 147.43 261.476L146.962 266H139.214C139.994 259.344 140.202 253.884 140.202 247.384C140.202 241.144 140.098 235.008 139.942 228.768H147.586V242.6C149.25 239.74 151.902 238.024 155.386 238.024ZM152.942 260.644C156.738 260.644 158.662 257.472 158.662 252.376C158.662 247.28 156.79 244.056 152.942 244.056C149.094 244.056 147.222 246.968 147.222 252.116C147.222 257.576 149.302 260.644 152.942 260.644ZM171.783 235.164C171.835 234.124 171.835 232.98 171.835 231.94C171.835 230.9 171.835 229.808 171.783 228.768H179.947C179.895 229.808 179.895 230.9 179.895 231.94C179.895 232.98 179.895 234.124 179.947 235.164H171.783ZM171.939 266C172.043 261.424 172.043 256.848 172.043 252.272C172.043 247.8 171.991 243.172 171.939 238.648H179.843C179.791 243.172 179.739 247.8 179.739 252.272C179.739 256.848 179.739 261.424 179.843 266H171.939ZM187.188 266C186.564 261.268 186.512 257.108 186.512 251.024C186.512 243.64 186.512 234.956 186.408 228.768H194.26C194.156 234.956 194.156 243.64 194.156 251.024C194.156 257.108 194.312 261.268 194.988 266H187.188ZM200.677 235.164C200.729 234.124 200.729 232.98 200.729 231.94C200.729 230.9 200.729 229.808 200.677 228.768H208.841C208.789 229.808 208.789 230.9 208.789 231.94C208.789 232.98 208.789 234.124 208.841 235.164H200.677ZM200.833 266C200.937 261.424 200.937 256.848 200.937 252.272C200.937 247.8 200.885 243.172 200.833 238.648H208.737C208.685 243.172 208.633 247.8 208.633 252.272C208.633 256.848 208.633 261.424 208.737 266H200.833ZM229.602 260.436L230.538 265.584C228.77 266.156 226.794 266.676 224.142 266.676C217.434 266.676 216.758 262.88 216.758 258.772V244.42H212.754V238.648H217.018V232.2L224.35 228.924V238.648H229.914V244.42H224.35V257.68C224.35 259.76 224.454 261.268 226.326 261.268C227.314 261.268 228.302 261.008 229.602 260.436ZM233.99 235.164C234.042 234.124 234.042 232.98 234.042 231.94C234.042 230.9 234.042 229.808 233.99 228.768H242.154C242.102 229.808 242.102 230.9 242.102 231.94C242.102 232.98 242.102 234.124 242.154 235.164H233.99ZM234.146 266C234.25 261.424 234.25 256.848 234.25 252.272C234.25 247.8 234.198 243.172 234.146 238.648H242.05C241.998 243.172 241.946 247.8 241.946 252.272C241.946 256.848 241.946 261.424 242.05 266H234.146ZM261.407 238.024C269.831 238.024 274.615 243.432 274.251 252.272L274.199 253.572H255.011C255.375 258.096 257.663 260.644 261.355 260.644C264.163 260.644 266.295 259.344 267.179 257.056L274.147 258.148C272.431 263.452 267.647 266.676 261.459 266.676C252.775 266.676 247.523 261.268 247.523 252.428C247.523 243.484 252.775 238.024 261.407 238.024ZM255.323 248.684H266.867C266.295 245.2 264.319 243.276 261.303 243.276C258.183 243.276 256.103 245.2 255.323 248.684ZM291.348 266.676C285.16 266.676 279.544 264.336 278.088 258.928L285.212 257.316C286.096 260.124 288.644 261.112 291.452 261.112C293.844 261.112 295.82 260.384 295.82 258.564C295.82 256.64 293.688 255.808 290.256 254.976L286.72 254.092C282.04 252.948 278.66 250.556 278.66 246.188C278.66 240.624 283.964 238.024 290.724 238.024C296.6 238.024 300.812 240.26 302.788 244.42L296.184 246.448C295.092 244.524 292.96 243.588 290.256 243.588C288.28 243.588 285.992 244.212 285.992 245.876C285.992 247.384 287.708 247.8 290.308 248.424L294.78 249.516C298.368 250.4 303.152 252.428 303.152 258.148C303.152 263.764 298.108 266.676 291.348 266.676Z" fill="white"/>
</svg>
