<svg width="16" height="16" viewBox="0 0 16 16" fill="none" xmlns="http://www.w3.org/2000/svg">
<path d="M7.99967 14.6654C4.31777 14.6654 1.33301 11.6806 1.33301 7.9987C1.33301 4.3168 4.31777 1.33203 7.99967 1.33203C11.6815 1.33203 14.6663 4.3168 14.6663 7.9987C14.6663 11.6806 11.6815 14.6654 7.99967 14.6654ZM7.33301 9.9987V11.332H8.66634V9.9987H7.33301ZM8.66634 8.9021C9.63014 8.61523 10.333 7.72236 10.333 6.66536C10.333 5.3767 9.28834 4.33203 7.99967 4.33203C6.86767 4.33203 5.92392 5.13816 5.71122 6.20767L7.01887 6.46921C7.11007 6.01085 7.51454 5.66536 7.99967 5.66536C8.55194 5.66536 8.99967 6.11308 8.99967 6.66536C8.99967 7.21763 8.55194 7.66536 7.99967 7.66536C7.63147 7.66536 7.33301 7.96383 7.33301 8.33203V9.33203H8.66634V8.9021Z" fill="white" fill-opacity="0.4"/>
</svg>
