<svg width="159" height="40" viewBox="0 0 159 40" fill="none" xmlns="http://www.w3.org/2000/svg">
<path d="M77.508 18.1422C77.508 20.8072 75.711 23.0512 73.261 23.7352L78.259 33.7282H75.256L70.525 23.9592H65.475V33.7282H62.854V11.5972L68.922 11.6672L68.911 11.6742H71.691C74.904 11.6742 77.508 14.6242 77.508 17.8322V18.1422ZM72.029 14.0982H65.475V21.5282H70.981C73.21 21.5282 75.016 20.1082 75.016 17.8822V17.4652C75.016 15.8172 73.679 14.0982 72.029 14.0982ZM81.128 14.0982V11.6672H98.772V14.0982H91.26V33.7282H88.64V14.0982H81.128ZM105.182 23.9132V31.2982H117.218V33.7282H102.561V11.6672H116.866V14.0982H105.182V21.4822H115.487V23.9132H105.182ZM148.028 15.0332H147.546L143.081 25.7832H150.096L151.106 28.2132H142.071L139.782 33.7262L140.2 33.7292H136.816L146.422 11.6672H149.307L158.828 33.7292H155.793L148.028 15.0332ZM124.014 11.6672V31.2982H135.563L134.554 33.7282H121.393V11.6672H124.014ZM47.98 11.6672H50.864L60.385 33.7282H57.351L49.586 15.0332H49.103L44.638 25.7832H51.653L52.663 28.2132H43.628L41.339 33.7262L41.758 33.7282H38.373L47.98 11.6672Z" fill="#E1DAB1"/>
<path d="M9.67586 33.7279L16.0529 22.6979L22.4299 33.7279H9.67586ZM0.109863 33.7279L16.0529 6.15186L31.9959 33.7279H26.9959L16.0529 14.3909L5.10986 33.7279H0.109863Z" fill="#E1DAB1"/>
</svg>
