<svg width="793" height="94" viewBox="0 0 793 94" fill="none" xmlns="http://www.w3.org/2000/svg">
<path d="M22.0435 47.1928V45.3328H40.0435C43.8835 45.3328 47.1435 44.5928 49.8235 43.1128C52.5035 41.5928 54.5435 39.3528 55.9435 36.3928C57.3835 33.3928 58.1035 29.7128 58.1035 25.3527C58.1035 20.9927 57.3835 17.3128 55.9435 14.3128C54.5435 11.3128 52.4835 9.05275 49.7635 7.53275C47.0835 6.01275 43.8435 5.25275 40.0435 5.25275H0.443535V2.07275H40.0435C46.0835 2.07275 51.3435 2.93275 55.8235 4.65275C60.3435 6.33275 63.8435 8.91275 66.3235 12.3927C68.8035 15.8327 70.0435 20.1527 70.0435 25.3527C70.0435 30.5527 68.8835 34.7528 66.5635 37.9527C64.2435 41.1528 60.8435 43.4928 56.3635 44.9728C51.9235 46.4528 46.4835 47.1928 40.0435 47.1928H22.0435ZM0.443535 92.0728V88.8928H38.3035V92.0728H0.443535ZM13.6435 90.3328V4.23275H25.0435V90.3328H13.6435ZM69.4435 92.6728C65.9635 92.6728 63.2435 92.0528 61.2835 90.8128C59.3635 89.5728 57.9635 87.9128 57.0835 85.8328C56.2035 83.7128 55.6435 81.3528 55.4035 78.7528C55.2035 76.1128 55.0835 73.3928 55.0435 70.5928C55.0035 67.7928 54.8435 65.0928 54.5635 62.4928C54.2835 59.8528 53.6635 57.4928 52.7035 55.4128C51.7435 53.2928 50.2035 51.6128 48.0835 50.3728C46.0035 49.1328 43.1235 48.5128 39.4435 48.5128H22.0435V46.8328H41.8435C47.4835 46.8328 51.9835 47.5928 55.3435 49.1128C58.7035 50.6328 61.2235 52.6728 62.9035 55.2328C64.6235 57.7528 65.8035 60.5128 66.4435 63.5128C67.0835 66.5128 67.4435 69.5128 67.5235 72.5128C67.6035 75.5128 67.7035 78.2928 67.8235 80.8528C67.9835 83.3728 68.4235 85.3928 69.1435 86.9128C69.9035 88.4328 71.2635 89.1928 73.2235 89.1928C74.5035 89.1928 75.6035 89.0728 76.5235 88.8328C77.4435 88.5528 78.3035 88.2128 79.1035 87.8128L80.2435 90.8128C79.2835 91.3328 77.8035 91.7728 75.8035 92.1328C73.8435 92.4928 71.7235 92.6728 69.4435 92.6728ZM79.817 92.0728V88.8928H90.617V5.25275H79.817V2.07275H144.197V26.6728H141.017C141.017 22.3928 140.437 18.6528 139.277 15.4527C138.157 12.2128 136.237 9.71275 133.517 7.95275C130.837 6.15275 127.157 5.25275 122.477 5.25275H102.077V88.8928H121.217C126.697 88.8928 130.957 87.9728 133.997 86.1328C137.037 84.2528 139.157 81.5528 140.357 78.0328C141.597 74.4728 142.217 70.1528 142.217 65.0728H145.397V92.0728H79.817ZM120.617 58.6528C120.617 55.9728 120.137 53.7928 119.177 52.1128C118.257 50.3928 116.937 49.1328 115.217 48.3328C113.497 47.5328 111.497 47.1328 109.217 47.1328H99.917V43.9528H109.217C111.497 43.9528 113.497 43.5928 115.217 42.8728C116.937 42.1528 118.257 40.9928 119.177 39.3928C120.137 37.7528 120.617 35.5928 120.617 32.9128H123.797V58.6528H120.617ZM162.957 2.07275V88.8928H176.997V92.0728H147.237V88.8928H159.657V5.25275H147.237V2.07275H162.957ZM233.457 2.07275V5.25275H220.797V93.2728H216.357L160.617 2.07275H174.417L217.497 73.4128V5.25275H203.877V2.07275H233.457ZM255.845 64.2928V61.1728H294.965V64.2928H255.845ZM278.765 0.332751L309.485 88.8928H319.145V92.0728H284.345V88.8928H296.345L273.005 16.7128L247.865 88.8928H259.925V92.0728H233.525V88.8928H244.265L275.525 0.332751H278.765ZM319.344 92.0728V88.8928H332.544V5.25275H319.344V2.07275H358.344V5.25275H343.944V88.8928H358.344V92.0728H319.344ZM391.776 93.8128C386.696 93.8128 382.256 93.0128 378.456 91.4128C374.696 89.8128 371.516 87.6528 368.916 84.9328L363.696 93.2728H360.996V68.6128H364.116C364.716 71.7728 365.716 74.6928 367.116 77.3728C368.516 80.0128 370.316 82.3128 372.516 84.2728C374.756 86.2328 377.376 87.7728 380.376 88.8928C383.376 89.9728 386.796 90.5128 390.636 90.5128C394.876 90.5128 398.516 89.8128 401.556 88.4128C404.636 87.0128 406.996 84.9928 408.636 82.3528C410.276 79.6728 411.096 76.4328 411.096 72.6328C411.096 69.1128 410.236 66.1528 408.516 63.7528C406.836 61.3128 404.576 59.2128 401.736 57.4528C398.896 55.6928 395.776 54.0728 392.376 52.5928C389.016 51.1128 385.636 49.5728 382.236 47.9728C378.836 46.3328 375.716 44.4328 372.876 42.2728C370.076 40.1128 367.816 37.4928 366.096 34.4128C364.376 31.2928 363.516 27.5128 363.516 23.0727C363.516 18.6328 364.616 14.7528 366.816 11.4327C369.056 8.11275 372.056 5.53275 375.816 3.69275C379.576 1.81275 383.776 0.872748 388.416 0.872748C392.336 0.872748 395.956 1.51275 399.276 2.79275C402.596 4.03275 405.496 5.89275 407.976 8.37275L413.256 0.872748H415.896V25.5327H412.836C412.036 20.7327 410.536 16.7727 408.336 13.6528C406.176 10.5327 403.476 8.21275 400.236 6.69275C397.036 5.13275 393.476 4.35275 389.556 4.35275C383.836 4.35275 379.516 5.67275 376.596 8.31275C373.676 10.9528 372.216 14.4328 372.216 18.7528C372.216 21.9128 373.056 24.5928 374.736 26.7928C376.456 28.9928 378.716 30.9128 381.516 32.5528C384.316 34.1928 387.376 35.7528 390.696 37.2328C394.056 38.6728 397.416 40.2328 400.776 41.9128C404.136 43.5528 407.216 45.5128 410.016 47.7928C412.816 50.0728 415.056 52.8528 416.736 56.1328C418.456 59.4128 419.316 63.3928 419.316 68.0728C419.316 73.2728 418.196 77.8128 415.956 81.6928C413.716 85.5328 410.536 88.5128 406.416 90.6328C402.296 92.7528 397.416 93.8128 391.776 93.8128ZM452.165 93.8128C447.085 93.8128 442.645 93.0128 438.845 91.4128C435.085 89.8128 431.905 87.6528 429.305 84.9328L424.085 93.2728H421.385V68.6128H424.505C425.105 71.7728 426.105 74.6928 427.505 77.3728C428.905 80.0128 430.705 82.3128 432.905 84.2728C435.145 86.2328 437.765 87.7728 440.765 88.8928C443.765 89.9728 447.185 90.5128 451.025 90.5128C455.265 90.5128 458.905 89.8128 461.945 88.4128C465.025 87.0128 467.385 84.9928 469.025 82.3528C470.665 79.6728 471.485 76.4328 471.485 72.6328C471.485 69.1128 470.625 66.1528 468.905 63.7528C467.225 61.3128 464.965 59.2128 462.125 57.4528C459.285 55.6928 456.165 54.0728 452.765 52.5928C449.405 51.1128 446.025 49.5728 442.625 47.9728C439.225 46.3328 436.105 44.4328 433.265 42.2728C430.465 40.1128 428.205 37.4928 426.485 34.4128C424.765 31.2928 423.905 27.5128 423.905 23.0727C423.905 18.6328 425.005 14.7528 427.205 11.4327C429.445 8.11275 432.445 5.53275 436.205 3.69275C439.965 1.81275 444.165 0.872748 448.805 0.872748C452.725 0.872748 456.345 1.51275 459.665 2.79275C462.985 4.03275 465.885 5.89275 468.365 8.37275L473.645 0.872748H476.285V25.5327H473.225C472.425 20.7327 470.925 16.7727 468.725 13.6528C466.565 10.5327 463.865 8.21275 460.625 6.69275C457.425 5.13275 453.865 4.35275 449.945 4.35275C444.225 4.35275 439.905 5.67275 436.985 8.31275C434.065 10.9528 432.605 14.4328 432.605 18.7528C432.605 21.9128 433.445 24.5928 435.125 26.7928C436.845 28.9928 439.105 30.9128 441.905 32.5528C444.705 34.1928 447.765 35.7528 451.085 37.2328C454.445 38.6728 457.805 40.2328 461.165 41.9128C464.525 43.5528 467.605 45.5128 470.405 47.7928C473.205 50.0728 475.445 52.8528 477.125 56.1328C478.845 59.4128 479.705 63.3928 479.705 68.0728C479.705 73.2728 478.585 77.8128 476.345 81.6928C474.105 85.5328 470.925 88.5128 466.805 90.6328C462.685 92.7528 457.805 93.8128 452.165 93.8128ZM497.987 64.2928V61.1728H537.107V64.2928H497.987ZM520.907 0.332751L551.627 88.8928H561.287V92.0728H526.487V88.8928H538.487L515.147 16.7128L490.007 88.8928H502.067V92.0728H475.667V88.8928H486.407L517.667 0.332751H520.907ZM577.206 2.07275V88.8928H591.246V92.0728H561.486V88.8928H573.906V5.25275H561.486V2.07275H577.206ZM647.706 2.07275V5.25275H635.046V93.2728H630.606L574.866 2.07275H588.666L631.746 73.4128V5.25275H618.126V2.07275H647.706ZM691.453 93.2728C683.333 93.2728 676.213 91.2728 670.093 87.2728C663.973 83.2728 659.213 77.7928 655.813 70.8328C652.413 63.8728 650.713 55.9528 650.713 47.0728C650.713 38.1528 652.413 30.2328 655.813 23.3128C659.213 16.3528 663.973 10.8728 670.093 6.87275C676.213 2.87275 683.333 0.872748 691.453 0.872748C695.453 0.872748 699.253 1.55275 702.853 2.91275C706.493 4.27275 709.713 6.17275 712.513 8.61275L718.333 2.07275H721.153V26.6728H717.913C717.633 22.0728 716.293 18.1128 713.893 14.7927C711.493 11.4727 708.413 8.93275 704.653 7.17275C700.933 5.41275 696.933 4.53275 692.653 4.53275C687.453 4.53275 683.033 5.71275 679.393 8.07275C675.793 10.4327 672.893 13.6328 670.693 17.6728C668.533 21.6727 666.953 26.2127 665.953 31.2928C664.953 36.3728 664.453 41.6328 664.453 47.0728C664.453 52.5128 664.953 57.7728 665.953 62.8528C666.953 67.9328 668.533 72.4928 670.693 76.5328C672.893 80.5328 675.793 83.7128 679.393 86.0728C683.033 88.4328 687.453 89.6128 692.653 89.6128C696.533 89.6128 700.033 89.0528 703.153 87.9328C706.313 86.8128 709.053 85.2528 711.373 83.2528C713.693 81.2528 715.513 78.9128 716.833 76.2328C718.153 73.5128 718.933 70.5928 719.173 67.4728H722.353V92.0728H719.533L714.193 85.1128C711.433 87.6328 708.093 89.6328 704.173 91.1128C700.253 92.5528 696.013 93.2728 691.453 93.2728ZM727.381 92.0728V88.8928H738.181V5.25275H727.381V2.07275H791.761V26.6728H788.581C788.581 22.3928 788.001 18.6528 786.841 15.4527C785.721 12.2128 783.801 9.71275 781.081 7.95275C778.401 6.15275 774.721 5.25275 770.041 5.25275H749.641V88.8928H768.781C774.261 88.8928 778.521 87.9728 781.561 86.1328C784.601 84.2528 786.721 81.5528 787.921 78.0328C789.161 74.4728 789.781 70.1528 789.781 65.0728H792.961V92.0728H727.381ZM768.181 58.6528C768.181 55.9728 767.701 53.7928 766.741 52.1128C765.821 50.3928 764.501 49.1328 762.781 48.3328C761.061 47.5328 759.061 47.1328 756.781 47.1328H747.481V43.9528H756.781C759.061 43.9528 761.061 43.5928 762.781 42.8728C764.501 42.1528 765.821 40.9928 766.741 39.3928C767.701 37.7528 768.181 35.5928 768.181 32.9128H771.361V58.6528H768.181Z" fill="url(#paint0_linear_125_2916)"/>
<defs>
<linearGradient id="paint0_linear_125_2916" x1="352.5" y1="-0.499512" x2="352.5" y2="92.0005" gradientUnits="userSpaceOnUse">
<stop stop-color="#FBF3CC"/>
<stop offset="1" stop-color="#8F8760"/>
</linearGradient>
</defs>
</svg>
