<svg width="20" height="21" viewBox="0 0 20 21" fill="none" xmlns="http://www.w3.org/2000/svg">
<path d="M4.55247 4.19515C6.01329 2.93204 7.91758 2.16797 10.0003 2.16797C14.6027 2.16797 18.3337 5.89893 18.3337 10.5013C18.3337 12.2814 17.7755 13.9311 16.8247 15.2851L14.167 10.5013H16.667C16.667 6.8194 13.6822 3.83464 10.0003 3.83464C8.20851 3.83464 6.5818 4.54153 5.38385 5.69165L4.55247 4.19515ZM15.4482 16.8075C13.9873 18.0706 12.0831 18.8346 10.0003 18.8346C5.39795 18.8346 1.66699 15.1036 1.66699 10.5013C1.66699 8.72119 2.22515 7.07144 3.17599 5.7175L5.83366 10.5013H3.33366C3.33366 14.1832 6.31843 17.168 10.0003 17.168C11.7922 17.168 13.4188 16.4611 14.6168 15.311L15.4482 16.8075Z" fill="white"/>
</svg>
