<svg fill="none" height="61" viewBox="0 0 172 61" width="172" xmlns="http://www.w3.org/2000/svg" xmlns:xlink="http://www.w3.org/1999/xlink"><clipPath id="a"><path d="m0 0h172v61h-172z"/></clipPath><g clip-path="url(#a)"><path d="m40.3728 23.2241c1.2675-.5321 2.5088-1.1093 3.5743-1.9937.5982-.4947 1.1404-1.173 1.3123-1.9488.2431-1.098-.2243-2.0724-.9758-2.8519-.3215-.3336-.6767-.6296-1.002-.9594-.086-.0862-.1682-.1761-.2467-.2698-.0337-.0375-.0673-.0787-.101-.12.0112.015.1084.1537.0374.0413-.0636-.1012-.1234-.2024-.1869-.3073-.0113-.0188-.0748-.1724-.0225-.0413.0598.1499-.0411-.1536-.0374-.1499-.0074-.0187-.0374-.1911-.0187-.0487.0225.1462-.0037-.1124-.0037-.1424 0-.0637 0-.1312.0075-.1949-.0187.1724.0299-.0937.0411-.1274.0673-.2398.1944-.4797.3963-.7608.3926-.5509 1.0132-1.083 1.5853-1.5065.5271-.3898.7926-1.0568.4374-1.6677-.3028-.52092-1.1328-.83197-1.6638-.43847-1.2225.91067-2.419 1.94877-2.9873 3.40657-.5084 1.3004-.1533 2.6159.6992 3.6614.2954.3636.6468.6746.9908.9969.157.1462.314.2961.4598.4572.0412.0487.0823.0975.1234.1424-.0075-.0075-.1234-.1761-.0486-.0637.0561.0862.1084.1799.1608.2661-.1271-.2024-.0486-.0187.0075.0787.0261.0412.0112-.1986-.0112.0112-.03.2736.0074-.1049.0224-.1086-.0112.0037-.0374.1574-.0411.1761-.0786.2773.0336-.06.0336-.06.0075.0075-.0748.1462-.0822.1612-.0374.0637-.0935.1274-.1234.1911-.0449.1012.0785-.1012.0822-.1049-.0374.0337-.0635.0787-.0972.1162-.1607.1686-.3253.326-.5047.4759.1832-.1536-.0561.0412-.1271.0899-.1272.09-.2543.1724-.3889.2549-.6169.386-1.2786.712-1.9516.9931-.6057.2548-1.0394.8057-.8487 1.4991.1607.5658.8898 1.1018 1.4992.8469z" fill="#ffd100"/><path d="m48.2003 21.5487c1.3647-1.3679 2.9051-2.5334 4.6623-3.3541 1.3011-.6072 2.7555-.9782 4.18-.9032.0673.0037.5944.0599.329.0187.157.0225.3178.0525.4711.0862s.3066.075.4561.1199c.0823.0263.1645.0563.2468.0825.0486.0187.0972.0375.1458.0562-.1159-.0525-.1346-.06-.0524-.0225.3141.1424.5983.3186.8899.5059.0262.015.1869.135.0336.0188.0636.0487.1234.0974.1832.1499.1832.1536.3552.3185.5197.4909.4936.5172.8188.9669 1.2114 1.694.0897.1686.1795.3447.258.5209.0336.0674.0635.1386.0934.2061-.0822-.1949-.0074-.0187.0038.0187.1159.3298.2318.6559.3066.9969.0187.0787.0822.5771.0523.2286.0112.1274.0224.2548.0262.3823 0 .1199-.0075.2323-.015.3485.0299-.5022-.0972.2473-.0074-.0075.071-.1986.0149-.0187-.0187.0187-.0486.06-.1309.2024.0897-.1049-.0524.0749-.071.1574-.0486.0562l.0523-.045c-.1196.0637-.1047.06.0412-.0037-.1272.045-.2543.0787-.3851.0974.2953-.0449-.0561-.0112-.101-.0112-.1084 0-.2206-.0038-.329-.0188.2542.0338-.1944-.0637-.2692-.0861-.0673-.0188-.2617-.1275-.0561-.015-.0598-.0338-.1196-.0675-.1794-.0975-.1907-.0974-.0337-.015.0112.015-.1496-.1012-.0823-.2173-.0486-.0337-.0075-.0337-.0486-.09-.0636-.1199.1608.3073.0972.2286.0598.1124-.0112-.03-.0112-.0675-.0224-.0937-.0748-.1836 0 .326.0187.1237.0075-.0712-.0037-.1462 0-.2174 0-.0487.0149-.0974.0112-.1424-.0075-.1462-.0748.3298-.0112.1162.0299-.1012.0449-.2099.0748-.3148.0336-.1124.071-.2211.1084-.3336.1084-.3148-.0897.1687.0374-.0937.1234-.251.2505-.4984.3926-.7382.1532-.2549.3178-.5022.4897-.7421.0786-.1086.1571-.2173.2393-.3223-.172.2249.0449-.0487.0673-.0787.0673-.0824.1346-.1649.2019-.2436.9497-1.1242 2.1386-2.1923 3.2004-2.9531 3.2005-2.301 6.857-3.5715 10.8687-3.178.6543.0638 1.2152-.6071 1.2152-1.2179 0-.7121-.5609-1.1543-1.2152-1.218-4.1912-.4085-8.3412.9144-11.7772 3.2867-1.4993 1.0343-2.9088 2.241-4.079 3.6426-.8824 1.0569-1.7498 2.2561-2.1125 3.609-.1532.5734-.2019 1.1805-.0523 1.7614.243.9331 1.0581 1.5215 1.9217 1.8213.9011.3111 2.0414.3036 2.8901-.1649.7815-.4347 1.1404-1.2105 1.2189-2.0724.1495-1.604-.6244-3.3429-1.4843-4.6508-1.0282-1.559-2.4377-2.8519-4.251-3.3953-1.9629-.5922-4.1464-.2961-6.0345.4159-2.4227.9107-4.5576 2.421-6.3784 4.2498-1.1141 1.1318.6057 2.8557 1.7124 1.7427z" fill="#cd29b5"/><path d="m28.7817 42.5767c-.4786-1.1543-.9123-2.1812-1.7198-3.3729-.1085-.1611-.3702-.5209-.9011-1.2217-.7253-.9632-1.6526-2.1924-1.7722-2.346-1.0805-1.3904-7.1411-6.6708-10.764-4.0175-2.09 1.5291-5.54092 8.0724-7.51875 11.5839-2.08251 3.6539-4.46039 7.2741-6.0306919 11.2017-.2318061.6071.1532909 1.4803.8711419 1.499 2.12364.0525 4.17251-.4347 9.9452-1.4166.744-.1274 2.2134-.2811 5.1521-.5884 2.4265-.2548 4.7632-.401 7.2308-.7645.4001-.0225.9347-.0637 1.5629-.1461.9234-.1237 1.4917-.2024 2.1573-.4722.2878-.1125.8412-.3373 1.3796-.7796 1.2113-1.0081 1.4955-2.4696 1.6039-3.0505.2356-1.2217.0411-2.1774-.1421-3.0993-.1981-.9444-.4823-1.6302-1.0543-3.0093zm-8.9507 3.7513c-1.1889-1.3379-2.0563-2.5671-2.6658-3.5227-.7776-1.218-1.2375-2.1587-1.3646-2.4247-.3776-.7833-.7291-1.5103-1.017-2.4922-.3215-1.1056-1.0356-3.5378.0972-4.7445.0673-.0712.1907-.2061.4001-.3223.8711-.4947 1.9778-.0112 2.7106.3186 1.0618.4797 1.7348 1.0493 2.5424 1.7426 1.3198 1.1355 2.176 2.1736 2.6583 2.7582.8524 1.0344 1.5105 2.02 1.675 2.2711.2916.4422 1.6413 2.5109 2.3779 4.6208.2205.6371.3626 1.1955.3851 1.293.1383.5696.2729 1.1055.2953 1.6564.0225.5659.086 2.0387-.7889 2.6196-.9197.6146-2.4938-.0262-2.92-.1949-.1794-.0712-.7814-.3223-2.0301-1.3416-.6244-.5097-1.4544-1.248-2.3555-2.2374z" fill="#cd29b5"/><path d="m80.6193 17.4115c-2.1087-.9519-4.4118-1.3041-6.7074-.9481-2.49.3897-4.8156 1.7389-6.4607 3.6464-.4299.4985-.486 1.233 0 1.7239.4375.4385 1.2862.4985 1.7199 0 .2468-.2885.5085-.5621.7851-.8207.4001-.371.5646-.5059.9609-.7758 1.0506-.7158 2.2171-1.1992 3.4771-1.4016.5608-.0899 1.1404-.1087 1.7087-.0824.6393.0262.916.0637 1.5254.1986.4075.0899.8113.2061 1.2076.341.1496.0525.2954.1087.4449.1649.2692.1012-.0747-.0299-.0336-.015.0523.0188.1009.045.1495.0675.5983.2698 1.3049.1724 1.6638-.4385.2991-.5134.1608-1.3866-.4412-1.6602z" fill="#1cbfe4"/><path d="m26.259 35.3176c-3.0658.3336-5.8999 1.5703-8.1805 3.6615-.4711.4309-.4674 1.2891 0 1.7239.5047.4647 1.2151.4609 1.7198 0 .2131-.1949.4337-.386.6581-.5659.0149-.0113.1906-.1462.0972-.0787-.0935.0712.0897-.0675.1084-.0787.1458-.1087.2954-.2136.4449-.3111.6356-.4235 1.3086-.802 2.0115-1.098-.1122.0449.0486-.0188.0748-.03.0785-.03.1607-.0637.243-.0937.157-.06.314-.1124.4711-.1649.314-.1012.6281-.1911.9496-.2698.2842-.0675.5721-.1312.86-.1799.0635-.0113.1233-.0225.1869-.03.0411-.0075.3028-.0525.1047-.0187-.1757.0299.0149-.0038.0523-.0075l.2019-.0225c.6281-.0675 1.245-.5097 1.2151-1.218-.0299-.6034-.5421-1.2929-1.2188-1.218z" fill="#ffd100"/><path d="m168.927 41.5049c.003.1874 0 .3748-.012.5622-.011.1761-.026.3485-.045.5246-.011.0975-.071.3973 0 .0263-.026.1274-.037.2548-.059.3822-.098.5434-.232 1.0831-.412 1.6078-.044.1311-.089.2623-.142.3897-.026.0675-.052.1312-.078.1986.086-.2211-.004.0075-.026.06-.154.3298-.314.6521-.498.9669-.403.682-.695 1.0606-1.278 1.6414-.613.6034-1.227 1.0419-2.016 1.4504-1.446.7495-2.878.9556-4.464.8507-.183-.0113-.366-.03-.546-.0487-.037-.0038-.261-.0338-.093-.0113.168.0262-.146-.0262-.179-.03-.277-.0487-.554-.1049-.83-.1761-.3-.075-.599-.1612-.887-.2736-.613-.2361-1.334.2624-1.495.8507-.187.6896.235 1.2592.849 1.4991 2.471.9556 5.511.8694 7.941-.1349 3.279-1.3529 5.623-4.2386 6.401-7.6939.194-.8582.329-1.7651.303-2.6458-.019-.6559-.546-1.218-1.216-1.218-.646.0038-1.237.5621-1.218 1.2217z" fill="#ffd100"/><path d="m98.4529 51.5148c1.9031 1.8289 4.3481 2.9307 6.9991 2.9869 2.516.0562 5.294-.6933 7.231-2.3535.729-.6259 1.368-1.5628 1.297-2.5671-.112-1.5328-1.439-2.6721-2.808-3.1443-2.194-.7533-5.563.7945-4.838 3.4778.471 1.7352 2.045 3.088 3.41 4.1336 1.948 1.4953 4.21 2.6121 6.551 3.3392 2.123.6595 4.351.9406 6.572.8244 1.66-.0862 3.358-.3185 4.928-.8769 1.97-.7008 3.78-1.9 4.614-3.8938 1.013-2.4209.172-5.1567-1.178-7.2666-.15-.2324-.307-.461-.471-.6783-.393-.5247-1.051-.7983-1.664-.4385-.516.3035-.834 1.1393-.437 1.6677.389.5209.733 1.0755 1.028 1.6527.045.0862.086.1761.131.2623 0 0 .164.3598.075.1574.1.2361.186.4835.265.727.079.2549.146.5172.198.7796.053.2698.064.3635.071.7045.015.5696-.075.8657-.228 1.4428-.082.3148.109-.1948-.034.09-.044.0899-.089.1799-.138.2698-.048.0862-.101.1724-.153.2586-.03.045-.284.386-.097.1537-.228.2848-.486.5284-.759.7682-.243.2136.202-.1311-.068.0525-.082.0562-.16.1124-.246.1686-.195.1274-.397.2436-.602.3523-.15.0787-.299.1462-.453.2211-.299.1462.232-.0862-.078.0375-.094.0375-.187.0749-.281.1087-.407.1499-.822.2773-1.241.3822-.344.0862-.688.1612-1.032.2249-.179.0337-.359.0599-.542.0899-.067.0113-.37.0487-.026.0038-.112.015-.224.0262-.333.0412-1.383.1536-2.793.1874-4.18.03-2.034-.2324-4.262-.9819-6.09-1.93-.89-.461-1.75-.9857-2.558-1.5815-.093-.0675-.187-.1387-.276-.2099.168.1312-.027-.0187-.064-.0525-.153-.1274-.31-.2548-.46-.386-.325-.2848-.639-.5846-.931-.9069-.119-.1312-.232-.2736-.351-.4085-.045-.0487-.131-.1874.033.045-.048-.0675-.097-.1312-.142-.1986-.086-.1237-.168-.2511-.243-.3823-.033-.06-.063-.1237-.101-.1874-.157-.2811.034.1724-.011-.0075-.026-.1124-.067-.2286-.101-.341-.09-.2811.019.296.004.0075-.015-.3598.022.2548-.004-.0075-.019.0337-.033.0674-.052.1012.03-.0637.067-.1237.105-.1799-.187.2511.269-.1762.052-.03.213-.1462.389-.2249.505-.2548.082-.0225.164-.0488.25-.0712.004 0 .411-.06.187-.0375.527-.045.815.045 1.267.341.128.0825.303.2249.46.4198-.134-.1687.299.4197.109.1873.011.0375.018.0712.03.1087-.012-.1424-.015-.1424-.012 0-.007.2511.057-.3073.008-.0562-.019.0974-.127.2698.026-.0187-.048.0899-.097.1798-.149.2698-.042.0712-.217.2436-.012.0225-.082.0899-.16.1799-.246.2661-.045.0449-.094.0899-.142.1311-.049.045-.101.0862-.154.1312.112-.0825.112-.0825 0 0-.448.3148-.92.5884-1.424.8095-.299.1311-.991.3597-1.477.4834-.669.1649-1.152.2399-1.798.2736-1.272.0637-2.509-.1049-3.635-.6259-1.039-.4834-1.641-.9294-2.377-1.6339-1.1183-1.0868-2.8382.6296-1.7091 1.7201z" fill="#ffd100"/><path d="m17.6029 36.9252c3.75-2.0424 6.2251-6.0674 6.2027-10.3696-.0075-1.1318-.1757-2.2786-.4973-3.3616-.4449-1.4991-2.7891-.862-2.3442.6483.1383.4647.2355.9332.3215 1.4091.0225.1424.0225.1537.0075.03.0112.0824.0187.1649.0299.2511.0187.1761.0299.3523.0411.5321.0187.3373.0187.6784.0038 1.0194-.0673 1.5403-.5272 2.9719-1.2974 4.246-.5683.9407-1.2674 1.7352-2.2134 2.5147-.0486.0412-.3776.2923-.1084.0899-.0673.0488-.1346.1012-.2019.1499-.1607.1162-.3252.2286-.4898.3373-.2205.1424-.4449.2774-.6767.401-1.3796.7458-.1533 2.852 1.2226 2.1024z" fill="#1cbfe4"/><path d="m22.1754 45.2825c1.073-.4347 2.232-.742 3.3088-.802.7627-.0449 1.5292-.0037 2.2769.1612.2917.0637.5796.1424.8637.2361.1383.0449.2729.0899.4075.1424.0711.0262.4225.1724.2767.1087.5384.2398 1.0581.5209 1.5516.8394.2356.1537.4674.3148.6954.4835.1608.1199-.1196-.0975.0374.03.0486.0374.0935.0749.1421.1124.1234.1012.243.2024.3627.3073.4374.386.8524.7982 1.2412 1.233.1608.1836.3178.371.4711.5621.1197.1499-.1009-.1349.015.015.0336.045.0673.0862.0972.1312.086.1161.1682.2323.2505.3522.2879.4198.5533.8582.7889 1.3117.1009.1949.1907.3935.2804.5921-.0823-.1874-.0299-.0787.0112.0375.0449.1199.086.2398.1271.3598.0524.1649.101.3298.1384.4947.0224.0974.0374.1948.056.2885.0412.1799-.0149-.296 0 .0188.0075.1461-.0074.296.0038.4384.0112.1837.0748-.2586.0149-.0974-.0112.0337-.0673.2024-.0598.2323-.0037-.0112.1608-.251.0337-.0861-.1122.1461.0822.0037.0037.0074-.0262 0-.0673.0825-.0972.0937.0224-.0075.2355-.1236.015-.0262-.0412.0187-.0898.045-.1309.0712-.1084.0637.1757-.0412-.0411.015-.1234.03-.2431.0637-.3664.0937-.1384.0337.0261 0 .0486 0-.0748.0075-.1533.015-.2281.0187-.1346.0075-.2692.0038-.4038-.0037-.0561-.0038-.1159-.0075-.172-.015.1795.0225.015 0-.071-.0225-.1271-.0337-.2543-.0675-.3776-.1124.1981.0749-.086-.0562-.1496-.09-.0448-.0262-.0897-.0562-.1308-.0862.0897.0712.0673.1012.0112-.015-.0299-.0599-.1271-.1911-.0972-.1124-.0561-.1386-.0972-.2886-.1234-.4385-.0262-.1461 0-.0262 0 0-.0075-.0862-.0112-.1723-.0075-.2623 0-.0637.0037-.1312.0075-.1949.0075-.2098-.0337.1499.0037-.0524.0262-.1574.0972-.3111.1234-.461.0224-.1424-.0187.045-.0336.075.0336-.0637.0635-.1349.1009-.1987.0337-.0637.2169-.326.1309-.2136-.086.1125.1346-.1461.1832-.1911.0448-.045.0934-.0899.1383-.1312.0187-.0187.1795-.1536.0673-.0637-.1196.0975.0486-.0337.0785-.0562.071-.0487.1421-.0974.2169-.1424.1233-.075.2505-.1462.3776-.2136.0561-.03.4225-.1874.228-.1124.1496-.06.2992-.1125.4524-.1612 1.4844-.4834 2.9537-.5134 4.5689-.3748.6543.0563 1.2151-.5996 1.2151-1.2179 0-.7046-.5571-1.1618-1.2151-1.218-2.8378-.2474-6.7822.06-8.4722 2.7545-.8786 1.3941-.8337 3.504.3365 4.7182 1.0469 1.0831 2.9312 1.3267 4.3071.8283 1.2189-.4385 1.9442-1.4054 1.9592-2.7021.0112-1.053-.3814-2.0911-.8263-3.0243-1.1291-2.3647-3.0845-4.4297-5.3016-5.8013-3.1406-1.9375-6.9505-2.1736-10.3528-.7982-.6094.2473-1.0356.8132-.8487 1.499.1421.5659.8674 1.0831 1.4806.8357z" fill="#1cbfe4"/><path d="m107.585 58.594c-.154 1.4766-1.47 2.5484-2.939 2.3947-1.473-.1536-2.542-1.4728-2.389-2.9456s1.469-2.5483 2.939-2.3947c1.469.1537 2.542 1.4691 2.389 2.9456z" fill="#ffd100"/><path d="m106.563 14.2371c1.065.2173 1.753 1.2629 1.536 2.331-.216 1.0681-1.26 1.7576-2.325 1.5403-1.066-.2174-1.754-1.263-1.537-2.3311.221-1.0718 1.26-1.7613 2.326-1.5402z" fill="#cd29b5"/><path d="m145.23 42.9291c1.189.2436 1.951 1.4054 1.708 2.5971s-1.402 1.96-2.591 1.7164c-1.188-.2436-1.951-1.4053-1.708-2.5971.243-1.1917 1.402-1.96 2.591-1.7164z" fill="#ffd100"/><path d="m110.033 22.3133c.168-.386.355-.7645.564-1.1281.142-.2435.292-.4834.449-.7195.082-.1237.172-.2436.258-.3635.198-.2773-.157.1836.067-.0862.068-.0825.139-.1687.21-.2511 1.129-1.3229 2.419-2.2111 4.109-2.6421.874-.2248 1.6-.2848 2.561-.2361.516.0263.684.0487 1.159.1462.456.0937.905.2173 1.346.3747.317.1125.553.2174.946.431.183.1012.362.2061.538.3223.105.0675.206.1387.307.2099.194.1349-.053-.06.138.1087.55.4872.781.7233 1.11 1.2554.086.1349.165.2736.236.416.048.0974.097.1949.142.2923-.022-.0562-.06-.1949.004.0262.026.09.052.1837.082.2736.019.0637.049.3073.026.06.008.0749.004.1424.008.2173-.008.1462-.008.1425 0-.0112-.042.1349-.042.1312.003 0-.041.0375-.108.2249.049-.0487-.011.015-.213.2024-.064.0787.157-.1349-.37.1986-.209.1237.172-.0787-.127.0412-.135.0449-.063.0225-.13.0375-.198.0562-.101.0263-.205.045-.31.0638.221-.0375-.019-.0038-.108.0037-.184.0112-.367 0-.55-.0037-.232-.0038-.056-.0038 0 .0037-.105-.0187-.209-.0375-.314-.0637-.067-.0187-.135-.0412-.202-.0562-.299-.0675.176.1199-.086-.03-.056-.03-.116-.0675-.172-.0937-.112-.0749-.108-.0675.015.0262-.023-.0187-.045-.0412-.067-.0599-.086 0-.221-.3598-.019.0037-.023-.0375-.049-.0824-.075-.1199-.067-.0937-.071-.2698.004.03-.011-.0487-.038-.0937-.045-.1424-.015-.075-.03-.1537-.052-.2249.007.0337.015.2961.011.0825-.004-.1762-.015-.3486-.004-.5247.004-.06.011-.1237.015-.1874.015-.3148-.06.2549.011-.0637.034-.1536.06-.3073.098-.4572.093-.3898.22-.772.362-1.1468.142-.3747.225-.5546.438-.9931.209-.431.437-.8507.68-1.2629.965-1.6527 2.041-3.0881 3.399-4.4297 2.834-2.80699 6.333-4.3735 10.165-5.11927.644-.12742 1.014-.89943.849-1.49905-.183-.67457-.849-.97813-1.495-.85071-3.978.77575-7.773 2.53339-10.768 5.29538-1.656 1.52905-3.073 3.37285-4.214 5.31415-.968 1.6414-1.903 3.5452-1.974 5.4902-.03.8433.18 1.6865.729 2.3386.647.7645 1.645 1.0755 2.606 1.1655.916.0862 1.944-.0787 2.748-.5509 1.032-.6071 1.443-1.664 1.249-2.8257-.292-1.7464-1.679-3.2867-3.088-4.2423-1.769-1.1993-4.023-1.7502-6.147-1.6827-2.565.0787-4.991 1.0718-6.849 2.8444-1.115 1.0643-2.027 2.3835-2.64 3.8001-.262.6034-.179 1.3079.437 1.6677.509.2886 1.395.1574 1.657-.4497z" fill="#1cbfe4"/><path d="m43.0258 51.5747c1.1926-.2735 2.4377-.4272 3.5967-.0862.5309.1574.987.4198 1.3908.8507.187.1987.2318.2661.4113.5734.1346.2361.2542.4797.3627.7271.4374.9818.8524 2.0124 1.9778 2.361.9347.2848 1.8096-.105 2.5312-.6858.7253-.5847 1.3198-1.3229 1.9329-2.02.9833-1.1205 1.9965-2.2074 3.0621-3.2454.9945-.9707 2.0863-2.0425 3.1406-2.777.243-.1687.4935-.3298.7515-.476.1047-.0599.2131-.1162.3215-.1724.0711-.0374.1421-.0674.2131-.1049.1795-.0862-.1495.0562.0337-.015.2505-.1012.5047-.1799.7665-.2436.1121-.0262.2243-.0487.3327-.0674.1944-.0375-.1795.0149.0187-.0038.0785-.0075.1533-.015.2318-.0187.3328-.0188.6655-.0113.9945.0187.1645.015.2244.045.0075-.0037.1084.0224.2169.0337.3253.0562.243.0487.4823.1124.7216.1874.1308.0412.2654.0899.3963.1386.0523.0188.1009.0412.1533.06.1159.045-.1159-.06.0785.0375.3066.1536.6094.3035.901.4834.6917.4197 1.3049.9294 1.8844 1.4878 1.1291 1.0831 2.849-.6333 1.7199-1.7239-1.776-1.7089-3.9707-3.0618-6.4831-3.1817-2.4639-.1162-4.4941 1.2105-6.2812 2.7732-1.2376 1.0831-2.4265 2.2486-3.5519 3.4478-.8487.9069-1.6451 1.8663-2.49 2.777-.1496.1611-.2991.3185-.4562.4685-.071.0674-.142.1349-.2131.1986-.0374.0337-.3028.2361-.1383.1199.172-.1199-.0636.0375-.101.06-.0561.0337-.1458.0599-.1907.1049-.0411.0412.258-.1649.0487-.03-.0113.0075-.1085.0225-.1047.0262 0 0 .3327-.0412.1645-.0224-.101.0112-.2356-.0525-.0486.0112.1832.0637.1084.0187.0561.0038-.2132-.06.0448.0149.0598.0412-.0187-.0225-.0785-.0412-.101-.06-.1308-.0937.1907.1424.0636.045-.1944-.1499.0598.1536-.0636-.075-.2318-.4272-.4112-.8732-.6131-1.3154-.6805-1.4953-1.8657-2.6158-3.436-3.1292-1.6152-.5285-3.4023-.3298-5.025.0449-.6393.1462-1.0169.8845-.8487 1.4991.1795.6596.8525 1.0006 1.4956.8544z" fill="#ffd100"/><path d="m55.9594 55.4649c1.0917.9444 2.3816 2.0537 3.8659 2.2598 1.2376.1724 2.2695-.5135 2.6396-1.7202.1832-.5996.1982-1.2592.2393-1.885.0187-.3111.0411-.6221.0785-.9332-.0299.2436.0299-.1499.0449-.2323.0374-.1837.0822-.3636.1421-.5435.0224-.0712.0486-.1424.0747-.2098-.0785.1986-.0074.0187.015-.015.0486-.0825.0897-.1649.1383-.2474.015-.0262.1496-.2173.0711-.1124.1346-.1724.4449-.4272.7702-.5659-.1159.0487.2804-.0862.3215-.0974.0748-.0187.4935-.0975.2655-.0675.2878-.0412.5832-.0412.8711-.0262.0935.0037.1869.0225.2804.0225-.3514-.0038-.1944-.0337.0561.0225.1608.0337.3178.0824.4673.1386-.1832-.0674-.0112-.0037.0262.015.0972.0525.1944.1012.2879.1612.0561.0337.3664.281.1795.1199.1159.1012.228.2024.3365.311.2093.2099.4037.4348.5982.6559.9234 1.0606 2.0376 1.8401 3.5107 1.589 1.1628-.1987 2.0489-1.0793 2.7892-1.9375.4075-.4722.7963-.9557 1.2225-1.4129.1945-.2061.3926-.4085.6057-.5996.0673-.06.1346-.1162.2019-.1724.0262-.0225.2019-.1574.086-.0712-.1159.0899.0636-.045.0897-.0637.0898-.06.1758-.12.2655-.1762.1533-.0937.3103-.1761.4711-.2548.1682-.0824-.1683.06.0075-.0037.086-.03.172-.06.2617-.09.1495-.045.2991-.0749.4486-.1087.3066-.0674-.2542.0075.0673-.0075.2431-.015.4824-.0112.7254 0 .0523.0038.1047.015.157.015-.3365-.0112-.086-.015 0 .0038.1421.03.2879.0599.43.0974.1533.0412.3028.0862.4524.1387.0635.0225.1233.0487.1906.0674.3141.1087-.2168-.1087.101.0413.3589.1686.7104.3522 1.0506.5583.8524.521 1.6002 1.1468 2.3293 1.8289.4785.4497 1.2413.4759 1.7198 0 .4524-.4535.4823-1.2705 0-1.7239-2.0788-1.9413-4.7408-3.8638-7.7393-3.3916-1.3273.2098-2.4863 1.0118-3.4135 1.9487-.8188.8283-1.4806 1.8064-2.3517 2.5859-.015.0112-.2393.1874-.0786.0675.1384-.1012-.0074.0037-.0448.0262-.101.0637-.2131.1199-.3104.1836-.0822.0562-.1682.0188.0748-.0262-.0486.0075-.0972.0375-.1458.0487-.0411.0075-.1084.0225-.1495.0375-.1907.0749.2205.0262.0149-.0038-.1196-.015-.3477-.0412-.0972.015-.071-.015-.43-.1349-.2879-.0674.1458.0637-.1869-.1237-.2355-.1499-.0636-.0375-.1496-.1462.0374.03-.0561-.0525-.1122-.0975-.1645-.15-.4038-.3822-.7366-.8357-1.1292-1.2367-.5533-.5621-1.1964-.9931-1.9367-1.2667-1.2637-.4684-2.8003-.341-4.0154.1987-1.6526.7345-2.363 2.3235-2.5686 4.0249-.0411.3448-.0673.6933-.0897 1.0418-.0113.1724-.0225.3448-.0337.5172-.0075.0975-.0822.5584-.0187.2474-.0299.1386-.0598.2773-.0935.4159-.0112.0525-.0336.1012-.0523.1499.1047-.311.0411-.1086-.0112-.0299.1533-.2361.1196-.1462.0561-.0825-.1683.1724.2318-.1499.0187-.0225-.0449.0263.329-.0937.071-.0374-.2542.0562.3253.0262.0523-.0075-.0299-.0038-.0747-.0038-.1046 0-.2393.015.071-.0825.0934.0187-.0037-.015-.2879-.0712-.329-.0824-.0486-.015-.0972-.0375-.1458-.0525-.2281-.0675.2169.1199-.0262-.015-.7552-.4122-1.4207-.8882-2.0713-1.4503-.4972-.431-1.23-.4872-1.7198 0-.4449.4609-.5048 1.3116-.0075 1.7464z" fill="#1cbfe4"/><path d="m91.5746 19.4051c-.1159 1.5553-1.4693 2.7208-3.0209 2.6046s-2.7144-1.4691-2.5985-3.0243c.1159-1.5553 1.4694-2.7208 3.021-2.6046s2.7143 1.4691 2.5984 3.0243z" fill="#ffd100"/><path d="m124.974 51.7059c-.105 1.4129-1.335 2.4734-2.745 2.3685-1.409-.1049-2.467-1.3379-2.362-2.7508.104-1.4128 1.334-2.4734 2.744-2.3684 1.413.1049 2.467 1.3341 2.363 2.7507z" fill="#1cbfe4"/><path d="m86.3296 47.7333c1.0992-.296 2.1273-.2848 3.2041.1012.8712.3111 1.5292.9482 2.0003 1.8101.0561.1012.1308.2923.2056.5434.0636.2099.1496.6146.1645.7083-.0075-.0562.0187.2136.0225.2774.0074.1236.0112.251.0112.3747s-.0038.2474-.0112.371c-.0038.0637-.0449.4198-.015.2174-.0336.2323-.086.461-.1496.6821-.0299.1086-.071.2136-.1046.3185-.0038.015-.0748.1799-.0187.0562.0523-.1236-.0412.075-.0486.0975-.0486.0899-.0972.1798-.1496.2698-.0262.0412-.1944.2661-.1047.1574.0935-.1087-.0934.0899-.1233.1237-.1795.1948.0859-.0263-.0674.0637-.0598.0337-.228.1274-.0672.0599-.1085.045-.2244.0675-.3365.0975-.0113.0037-.1982.0262-.0748.015.1308-.0113-.0711-.0038-.0785-.0038-.0785-.0037-.3814-.0187-.3141-.0075.1271.0188-.0636-.015-.071-.0187-.0561-.0188-.1122-.03-.1683-.045-.0523-.015-.1084-.0337-.1607-.0525.0187.0075.1645.075.0448.0113-.0486-.0225-.0897-.0525-.1346-.0787.0486.03.0898.1237.0524.0375-.0636-.1387.0374.0862.0336.0712-.0149-.0263-.0336-.0525-.0486-.0787.015.0374.0299.0712.0449.1086 0 .0413.0411.1762.0037.0525-.0449-.1611-.0336.1499-.0037-.0225.0112-.0599.0299-.1199.0486-.1799-.0075.0263-.0598.1275.0037-.0075.1309-.281.2169-.3935.3963-.5771.1907-.1949.1346-.1499.3739-.2923.1458-.0862.1645-.0337-.0037-.0075.086-.015.1757-.06.2654-.0787.0486-.0112.3066-.0525.1159-.03-.1944.0225.0786 0 .1272-.0037.1869-.0075.3701.015.557.0225-.2093-.0075-.1046-.0188.0337.0112.0897.0187.1832.0375.2729.06.2019.0487.4038.1086.602.1761.0934.03.1869.0675.2804.1012.0411.015.3066.1199.1832.0712-.1197-.0487.1421.0637.1869.0824.1122.0525.2206.1012.329.1574.3926.1949.7777.4085 1.1553.6334.7702.4609 1.503.9781 2.2209 1.5178.2243.1686-.1197-.0975.0336.0262.0636.0525.1309.1049.1982.1574.1121.0899.2243.1799.3365.2736.142.1162.2804.2361.4225.356.4972.431 1.23.4872 1.7198 0 .4373-.4385.4973-1.2892 0-1.7239-1.2151-1.0568-2.5312-2.035-3.9257-2.8444-1.7984-1.0456-4.2324-2.1399-6.2663-1.1018-1.2824.6558-2.4489 2.3909-1.9928 3.8675.4823 1.5553 2.434 1.9937 3.8435 1.6977 2.834-.5959 3.3724-4.4297 2.7368-6.7495-.4486-1.6377-1.559-3.0618-3.0882-3.8151-1.6675-.8244-3.5594-.9406-5.3465-.4609-1.5105.3972-.8712 2.747.6431 2.3422z" fill="#cd29b5"/><path d="m163.609 36.618c2.367-.6746 4.58-2.0237 6.11-3.9762 2.022-2.5896 2.602-5.7901 2.123-8.9943-.288-1.945-.976-3.8713-1.97-5.5652-1.357-2.3236-3.402-4.6808-5.87-5.8613-.957-.4572-2.086-.8132-3.141-.461-1.379.461-2.292 2.0725-2.187 3.5003.12 1.664 1.604 2.6758 3.193 2.6908 1.342.015 2.389-.8095 2.718-2.0987.296-1.1617.135-2.4247-.123-3.5752-.318-1.4278-.879-2.82195-1.57-4.10738-1.395-2.58211-3.549-4.66579-6.162-5.99245-4.236-2.1548774-9.403-2.675796-14.024-1.697668-.58.123672-1.156.273576-1.724.445967-1.495.449711-.856 2.803221.647 2.349761 2.423-.73079 4.778-.97438 7.328-.74953.262.02249.523.04872.785.0787.079.0075.157.01874.236.02998.22.02624-.262-.03747-.034-.00374.198.02998.396.05996.591.08994.875.14616 1.742.34853 2.591.61086.501.15365.991.33354 1.477.52841.224.08995.082.03373.033.015.053.02248.109.04871.161.0712.127.05621.254.11618.378.17614.258.12367.508.25109.759.38975 1.099.60337 1.899 1.18425 2.763 2.04245 1.719 1.71266 2.867 3.94251 3.406 6.31471.056.2511.104.506.145.7608.042.2436.008.0637.004.0112.008.0563.015.1087.019.1649.011.1424.026.2811.03.4235.007.2099.007.4235-.004.6334-.004.0599-.015.1199-.015.1799 0-.0075.049-.2399.015-.1087-.03.1049-.037.2136-.067.3185-.019.0712-.056.1424-.068.2174-.026.1424.135-.1911.038-.0975-.019.0188-.034.0638-.049.09-.131.2136.038-.0375.023-.0113-.09.1275-.154.0937.015.0113-.176.0862.157-.0188-.12.0487-.049.0112-.101.0262-.153.0337.246-.0374.052-.0112.003-.015-.074-.0075-.329-.0262-.119.0075-.15-.0224-.296-.0637-.438-.1124.206.0675-.093-.0562-.157-.0899-.116-.06.008.0187.03.0374-.052-.0412-.101-.0936-.149-.1386.146.1424-.019-.075.056.1199-.026-.0637-.038-.1312-.056-.1949.03.1125 0 .1424.007.0075.004-.0524.004-.1124.004-.1649-.004-.1874-.041.1762-.004-.0112.026-.1124.056-.2249.09-.3373.052-.1874-.075.1387.007-.0337.027-.0525.053-.105.079-.1574.03-.0487.06-.0975.09-.1499.063-.105-.098.0749.052-.0675.06-.0562.247-.1949.082-.0899.045-.0263.139-.0637.18-.1012-.019.0187-.236.0599-.142.0637.03 0 .213-.0787.224-.0562.015.03-.284-.0038-.153.0225.048.0075.127-.0075.175-.0075.075 0 .15.0112.225.0112-.236-.0037-.127-.0187.03.015.202.045.392.1087.587.1761.28.1012-.09-.0562.104.045.105.0562.213.1049.318.1612.224.1199.441.2473.651.386.187.1199.501.3485.59.4159.098.075.419.3448.595.506.935.8394 1.738 1.7689 2.4 2.7545.355.5321.681 1.0868.965 1.6602.097.1948.187.3935.276.5958.015.0338.03.0712.045.105.049.1087-.127-.3148-.03-.0675.285.7196.531 1.4503.711 2.2036.056.2324.104.4647.149.6971.027.1311.049.2661.071.3972.008.06.019.1162.027.1762.018.1311-.012-.1312.011.0937.06.5958.097 1.1879.078 1.7876-.037 1.143-.28 2.3572-.819 3.4478-.302.6108-.669 1.1955-1.106 1.7051-.206.2399-.423.4685-.651.6859-.119.1124-.239.2211-.362.3297-.053.045-.105.09-.157.1312-.12.1012-.049.0412-.124.0975-.437.3335-.912.6296-1.398.8881-.221.12-.449.2286-.677.3336-.093.0412-.273.1162-.071.0337-.112.045-.224.0899-.336.1312-.307.1161-.614.2173-.928.3073-1.491.4085-.852 2.762.658 2.331z" fill="#cd29b5"/><path d="m119.537 11.1455c-3.836-2.37977-8.689-3.21924-13.018-1.77266-4.008 1.33786-6.988 4.41846-8.491 8.33466-.4449 1.1618-.7216 2.3573-.8861 3.5865-.086.6521.6207 1.218 1.2151 1.218.7291 0 1.1291-.5621 1.2151-1.218-.0747.5659-.0037.0375.0225-.1087.0336-.2061.0748-.4122.1196-.6183.1197-.5584.2729-1.1093.4558-1.649.053-.1574.109-.3148.169-.4684.022-.0637.048-.1274.074-.1912-.003.0075.127-.311.06-.1499-.067.1649.071-.1649.067-.1536.03-.0675.06-.1349.094-.2024.097-.2061.198-.4122.307-.6183.186-.3598.392-.7083.609-1.0456.105-.1612.209-.3186.322-.4722.164-.2286.164-.2286.325-.4273 2.452-2.9906 6.098-4.3285 9.859-4.0549 2.157.1537 4.363.9369 6.266 2.1174 1.324.8283 2.543-1.2779 1.215-2.1061z" fill="#ffd100"/><path d="m84.2948 15.0804c.2019-.1686-.2917.2061-.015.0113.1496-.105.2991-.2099.4561-.3111.187-.1162.3777-.2248.5758-.3298.1197-.0637.243-.1199.3664-.1799.2057-.1011.0561-.0262.0075-.0075.086-.0374.1757-.0712.2654-.1049.688-.2548 1.2488-.386 1.8657-.4085.759-.03 1.4021.075 2.1386.3598.1832.0712.5197.2436.7926.4122.3552.2174.4487.2923.7403.5659.5347.4947.8039.8357 1.1591 1.4691.329.5884.5047 1.0343.6655 1.7764.0374.1611.0673.326.0897.4909-.0262-.2061.0112.1761.0149.2286.0262.4085.0262.8282-.0336 1.2367-.0897.6371-.3365 1.3267-.6244 1.8663-.1458.2736-.3066.5397-.4823.7983-.0673.0937-.1346.1874-.2019.281.1496-.2098.0785-.1011-.0262.0263-.4187.5059-.4935 1.2254 0 1.7239.43.431 1.2974.5097 1.7199 0 .8936-1.0831 1.589-2.3423 1.8918-3.7252.4001-1.8288.1421-3.6689-.6243-5.359-1.5741-3.4591-5.4438-5.3067-9.1078-4.2911-1.2188.3373-2.3816.9407-3.3574 1.7502-.5048.4197-.4337 1.2891 0 1.7239.5047.4984 1.2151.4197 1.7236-.0038z" fill="#cd29b5"/><path d="m135.419 47.5797c1.088 1.8063 2.274 3.5977 3.713 5.1417.879.9407 1.888 1.7914 3.092 2.2711.991.3935 2.053.386 3.028-.0487.737-.3261 1.316-.9032 1.87-1.4766.265-.2736.531-.5472.822-.7945.157-.1349-.231.1462.056-.045.079-.0524.154-.1049.232-.1499.083-.0487.165-.0899.247-.1349.127-.06.138-.0637.026-.0112.056-.0188.112-.0375.168-.0562.4-.0937.767-.1237 1.197-.0113.501.1274.905.3373 1.387.6558.938.6184 1.757 1.5028 2.497 2.3835.423.5022 1.283.4385 1.72 0 .498-.4984.427-1.2179 0-1.7239-1.357-1.6115-3.133-3.3616-5.294-3.7401-1.08-.1874-2.168-.0525-3.125.5022-.726.4197-1.294 1.0381-1.877 1.6302-.124.1274-.251.2511-.378.371-.078.0712-.157.1387-.236.2061.18-.1461.042-.0299 0-.0037-.086.0525-.172.1124-.261.1611 0 0-.299.1349-.135.0712.142-.0562-.381.1275-.4.0937-.037-.0674.4-.0262.165-.0262-.034 0-.068.0075-.101.0075-.071 0-.139.0037-.21 0-.205-.0075-.258-.1199.034.015-.079-.0375-.198-.0338-.284-.0562-.082-.0188-.165-.045-.247-.0712-.034-.0113-.067-.0263-.101-.0375-.142-.0412-.176.0112.082.0375-.19-.0188-.452-.2249-.613-.3223-.101-.0637-.198-.1275-.295-.1949-.064-.0412-.404-.3148-.127-.0862-.251-.2061-.494-.416-.729-.6409-1.574-1.5177-2.674-3.2379-3.829-5.1529-.804-1.3342-2.905-.1125-2.094 1.2367z" fill="#cd29b5"/><path d="m27.4881 32.7542c2.7854-1.8251 5.9036-4.1786 6.9617-7.5065.3851-1.2105.3888-2.5334.0187-3.7439-.2505-.8094-.6543-1.5627-.8861-2.3759-.2393-.8395-.258-1.694-.0711-2.5222.4562-2.005 1.7797-3.5677 3.3014-4.9618.4861-.4423.4487-1.2705 0-1.72394-.4823-.48344-1.2338-.44597-1.7198 0-1.3909 1.27414-2.6546 2.76574-3.4061 4.50834-.8562 1.99-.9609 4.1374-.1608 6.1649.2842.7195.6768 1.5777.7702 2.2411.015.1086.0299.4871.0187.712-.0037.0974-.0149.1949-.0224.2923-.0187.2998.0561-.2998-.0187.1049-.0411.2212-.0972.4385-.1645.6521-.0374.1162-.0785.2286-.1196.3448-.0187.0487-.0374.0937-.0561.1387.1271-.3223.0336-.0787-.0038-.0038-.1271.2511-.2542.5022-.4038.7458-.0785.1312-.1645.2623-.2505.3898-.0448.0674-.0934.1349-.1383.1986-.0299.045-.2542.3298-.086.1199-1.316 1.6639-3.0209 2.9644-4.7857 4.1186-.5496.3598-.7776 1.0794-.4374 1.6677.3178.5509 1.1067.802 1.66.4385z" fill="#cd29b5"/><path d="m29.7313 23.4113c-.0748.9931-.9384 1.7389-1.9255 1.6639-.9908-.0749-1.7348-.9406-1.66-1.93.0748-.9931.9347-1.7389 1.9255-1.6639.9908.0712 1.7348.9369 1.66 1.93z" fill="#ffd100"/><path d="m45.9091 56.038c-.0748.9931-.9385 1.7389-1.9255 1.6639-.9908-.0749-1.7348-.9406-1.6601-1.93.0748-.9931.9347-1.7389 1.9255-1.6639.9908.0749 1.7348.9369 1.6601 1.93z" fill="#cd29b5"/><g fill="#353eef"><path d="m32.5806 36.0672c-.3029-6.5546 6.1466-12.206 14.4243-12.5883 6.3933-.296 12.3306 2.4997 14.3495 7.0456 2.4265 5.2391-10.8612 8.1398-11.5566 2.8894-.4711-3.6877-1.2039-6.4384-2.6322-6.371-1.3534.0637-2.4601 2.2523-2.3367 4.9619.3664 7.9037 10.5098 10.4296 12.5212 6.6258.9048-1.6115 5.2269-1.0981 3.8361 1.4653-2.2284 4.0287-7.2234 6.8993-13.0896 7.1729-8.2702.3785-15.2095-4.5796-15.516-11.2016z"/><path d="m63.59 32.9864c.0412-6.6145 6.4607-11.9698 14.3496-11.9211s14.2411 5.4827 14.2 12.0973c-.0412 6.6857-6.4607 11.9661-14.3496 11.9174-7.8889-.045-14.2411-5.4078-14.2-12.0936zm11.4071.0713c-.0299 4.6732 1.2376 8.4208 2.8154 8.4283 1.6488.0113 2.9648-3.7213 2.9947-8.3946.03-4.6021-1.2412-8.4209-2.8901-8.4322-1.5777-.0037-2.8938 3.7964-2.92 8.3985z"/><path d="m125.979 42.6441c0 3.0956-2.389 4.1524-6.816 4.1524-4.494 0-6.883-1.0568-6.883-4.1524 0-3.8001 2.105-5.6326 2.105-10.1373 0-2.9569-1.264-5.7001-3.159-5.7001-2.39 0-5.126 3.519-5.126 7.3228v.4235c0 4.7183 2.179 5.0705 2.179 8.0949 0 3.0955-2.389 4.1523-6.883 4.1523-4.4938 0-6.8829-1.0568-6.8829-4.1523 0-2.7433 2.1759-2.4622 2.1759-6.6183 0-3.0281-2.6695-3.8039-2.6695-6.4797 0-3.8 11.7285-8.8706 13.9085-4.7182 1.615-.9856 3.582-1.5478 5.758-1.5478 6.18 0 10.184 3.5228 10.184 8.8706v.3523c.071 4.5047 2.109 6.3335 2.109 10.1373z"/><path d="m126.958 21.6612c-.075-1.619 1.193-3.0206 2.808-3.0955l.774-.0375c.942-8.4359 7.41-13.04172 14.503-13.37526 5.335-.25109 11.99 2.18861 13.516 6.20606 2.075 5.2617-10.701 7.4128-11.579 2.1661-.599-3.78133-1.56-4.79318-3.317-4.71074-2.456.11618-3.488 5.17174-3.716 9.27164l2.034-.0937c1.686-.0787 3.013 1.1992 3.088 2.8182s-1.125 3.0131-2.812 3.0918l-2.247.1049c.236 2.6833.692 4.812 1.077 6.281.632 2.4247 1.241 3.7326 1.608 6.3935.325 2.3497.505 3.534-.086 4.587-1.447 2.5859-5.492 2.6421-6.532 2.6534-.759.0112-5.242.0674-6.681-2.6234-.172-.3223-.389-.8507-.269-3.3129.19-3.9312.901-5.835 1.275-9.4777.093-.9107.205-2.316.205-4.0624l-.561.0262c-1.618.0825-3.013-1.1955-3.088-2.8107z"/><path d="m144.789 27.1666c0-1.6452 1.357-3.0056 2.999-3.0056h.998c1.854 0 4.92-5.7189 8.562-5.7189 2.138 0 3.78.8582 3.78 3.1443 0 1.0006-.285 1.7876-.643 2.5746h2.138c1.641 0 2.999 1.3604 2.999 3.0056s-1.358 3.0018-2.999 3.0018h-3.709v8.5071c0 2.4322.643 4.2198 4.494 2.361 1.571-.7158 4.494.1424 2.782 2.9307-1.854 3.2154-6.064 4.0736-9.059 4.0736-3.784 0-8.349-2.286-8.349-7.4352v-10.4372h-.998c-1.638 0-2.995-1.3566-2.995-3.0018z"/></g></g></svg>