<svg width="60" height="60" viewBox="0 0 60 60" fill="none" xmlns="http://www.w3.org/2000/svg">
<path d="M30 55C16.1929 55 5 43.807 5 30C5 16.1929 16.1929 5 30 5C43.807 5 55 16.1929 55 30C55 43.807 43.807 55 30 55ZM17.5 42.5H22.5C22.5 38.3577 25.8577 35 30 35C34.1423 35 37.5 38.3577 37.5 42.5H42.5C42.5 35.5965 36.9035 30 30 30C23.0965 30 17.5 35.5965 17.5 42.5ZM20 27.5C22.0711 27.5 23.75 25.821 23.75 23.75C23.75 21.6789 22.0711 20 20 20C17.9289 20 16.25 21.6789 16.25 23.75C16.25 25.821 17.9289 27.5 20 27.5ZM40 27.5C42.071 27.5 43.75 25.821 43.75 23.75C43.75 21.6789 42.071 20 40 20C37.929 20 36.25 21.6789 36.25 23.75C36.25 25.821 37.929 27.5 40 27.5Z" fill="#ED4E00"/>
</svg>
