<svg width="25" height="25" viewBox="0 0 25 25" fill="none" xmlns="http://www.w3.org/2000/svg">
<path fill-rule="evenodd" clip-rule="evenodd" d="M11.5979 3.07617H17.8791L12.9001 9.81699H17.8791L6.54224 23.2986L10.4488 13.8002H6.54224L11.5979 3.07617ZM3.17188 13.2646C3.17188 9.14202 5.93177 5.66409 9.7047 4.57764L8.14404 7.88813C6.51938 9.11892 5.46988 11.0692 5.46988 13.2646C5.46988 15.1638 6.25533 16.8796 7.5191 18.1048L6.59622 20.3486C4.50988 18.6929 3.17188 16.135 3.17188 13.2646ZM9.20975 21.7933L10.8319 19.8642C11.277 19.9568 11.7382 20.0054 12.2107 20.0054C15.9336 20.0054 18.9515 16.9874 18.9515 13.2646C18.9515 10.8905 17.7243 8.80317 15.8696 7.60224L17.237 5.75099C19.6567 7.37291 21.2495 10.1327 21.2495 13.2646C21.2495 18.2566 17.2027 22.3034 12.2107 22.3034C11.1587 22.3034 10.1487 22.1237 9.20975 21.7933Z" fill="url(#paint0_radial_1926_21470)"/>
<defs>
<radialGradient id="paint0_radial_1926_21470" cx="0" cy="0" r="1" gradientUnits="userSpaceOnUse" gradientTransform="translate(9 7.5) rotate(71.5651) scale(12.6491 11.3075)">
<stop stop-color="#FFD556"/>
<stop offset="1" stop-color="#ED4E01"/>
</radialGradient>
</defs>
</svg>
