<svg width="32" height="32" viewBox="0 0 32 32" fill="none" xmlns="http://www.w3.org/2000/svg">
<path fill-rule="evenodd" clip-rule="evenodd" d="M14.8462 3.9375H22.8861L16.513 12.5657H22.8861L8.375 29.8222L13.3755 17.6643H8.375L14.8462 3.9375ZM4.06055 16.9786C4.06055 11.7018 7.59321 7.25004 12.4226 5.85938L10.4249 10.0968C8.34535 11.6722 7.002 14.1685 7.002 16.9786C7.002 19.4096 8.00736 21.6058 9.625 23.1741L8.4437 26.0463C5.77319 23.9269 4.06055 20.6528 4.06055 16.9786ZM11.789 27.8954L13.8654 25.4262C14.4351 25.5446 15.0254 25.6069 15.6302 25.6069C20.3955 25.6069 24.2585 21.7439 24.2585 16.9786C24.2585 13.9399 22.6876 11.2681 20.3136 9.73086L22.0639 7.36127C25.1612 9.43732 27.1999 12.9699 27.1999 16.9786C27.1999 23.3684 22.02 28.5483 15.6302 28.5483C14.2837 28.5483 12.9909 28.3183 11.789 27.8954Z" fill="url(#paint0_radial_1987_26008)"/>
<defs>
<radialGradient id="paint0_radial_1987_26008" cx="0" cy="0" r="1" gradientUnits="userSpaceOnUse" gradientTransform="translate(11.5205 9.6) rotate(71.5651) scale(16.1909 14.4736)">
<stop stop-color="#FFD556"/>
<stop offset="1" stop-color="#ED4E01"/>
</radialGradient>
</defs>
</svg>
