<svg width="249" height="133" viewBox="0 0 249 133" fill="none" xmlns="http://www.w3.org/2000/svg" xmlns:xlink="http://www.w3.org/1999/xlink">
<path fill-rule="evenodd" clip-rule="evenodd" d="M117.516 10.4121H140.78L122.339 35.3777H140.78L98.7922 85.3088L113.261 50.1301H98.7922L117.516 10.4121ZM86.3086 48.1447C86.3086 32.8764 96.5303 19.9954 110.504 15.9715L104.724 28.2324C98.7066 32.7908 94.8196 40.0139 94.8196 48.1447C94.8196 55.1788 97.7286 61.5334 102.409 66.0711L98.9911 74.3817C91.2641 68.2494 86.3086 58.7758 86.3086 48.1447ZM108.671 79.7321L114.679 72.5876C116.327 72.9302 118.035 73.1103 119.785 73.1103C133.573 73.1103 144.751 61.9329 144.751 48.1447C144.751 39.3523 140.205 31.6214 133.336 27.1736L138.401 20.3172C147.363 26.3242 153.262 36.5456 153.262 48.1447C153.262 66.6333 138.274 81.6213 119.785 81.6213C115.889 81.6213 112.148 80.9557 108.671 79.7321Z" fill="url(#paint0_radial_2121_8332)"/>
<g clip-path="url(#clip0_2121_8332)">
<g clip-path="url(#clip1_2121_8332)">
<path d="M9.86848 113.328L0.296645 129.905C0.0367357 130.354 0.361174 130.915 0.879201 130.915H3.0732L9.8649 118.883C10.123 118.425 10.7809 118.425 11.0372 118.883L17.8289 130.915H20.0211C20.5391 130.915 20.8636 130.354 20.6036 129.905L11.0336 113.328C10.7737 112.878 10.1266 112.878 9.86669 113.328H9.86848Z" fill="white"/>
<path d="M9.82047 124.237L5.96484 130.914H14.9344L11.0788 124.237C10.7992 123.752 10.0983 123.752 9.81867 124.237H9.82047Z" fill="white"/>
<path d="M33.1929 125.397H27.215L25.8079 129.109H23.3809L29.011 114.787H31.4183L37.0485 129.109H34.6215L33.1929 125.397ZM27.9696 123.418H32.4383L30.3375 117.91C30.2765 117.766 30.2353 117.603 30.2156 117.42C30.1959 117.603 30.1546 117.766 30.0937 117.91L27.9714 123.418H27.9696Z" fill="white"/>
<path d="M44.218 120.823C44.1158 120.803 44.0208 120.781 43.8379 120.781C41.8178 120.781 40.6151 122.172 40.6151 124.908V129.111H38.4121V119.109H40.6151V120.966C41.0632 119.64 42.1458 118.865 43.7161 118.865C43.9401 118.865 44.0763 118.885 44.2197 118.906V120.824L44.218 120.823Z" fill="white"/>
<path d="M52.0632 120.825H49.4927V125.417C49.4927 126.702 49.9821 127.191 51.2673 127.191C51.5326 127.191 51.7781 127.191 52.0632 127.172V129.068C51.7566 129.088 51.2261 129.109 50.8389 129.109C48.1663 129.109 47.2898 127.722 47.2898 125.376V120.823H45.5762V118.905H47.2898V116.121H49.4927V118.905H52.0632V120.823V120.825Z" fill="white"/>
<path d="M55.6034 124.554C55.7665 126.248 57.0714 127.328 58.6846 127.328C59.9896 127.328 61.031 126.757 61.4791 125.819H63.7645C63.1533 127.881 61.1332 129.205 58.7044 129.205C55.5012 129.205 53.3789 126.798 53.3789 123.921C53.3789 121.044 55.6034 118.637 58.6416 118.637C61.6799 118.637 63.9043 121.024 63.9043 123.921C63.9043 124.145 63.9043 124.391 63.8846 124.554H55.6016H55.6034ZM61.6225 123.023C61.4182 121.555 60.1742 120.513 58.6434 120.513C57.1126 120.513 55.8902 121.514 55.6643 123.023H61.6207H61.6225Z" fill="white"/>
<path d="M65.2617 114.779H67.4647V125.52C67.4647 126.683 68.0365 127.233 68.9955 127.233C69.1783 127.233 69.544 127.233 69.7483 127.214V129.09C69.4633 129.11 68.9148 129.132 68.5473 129.132C66.3641 129.132 65.2635 127.949 65.2635 125.583V114.779H65.2617Z" fill="white"/>
<path d="M79.8074 129.11V127.553C79.1549 128.553 77.7872 129.205 76.278 129.205C73.5032 129.205 71.0547 127.165 71.0547 123.921C71.0547 120.677 73.5032 118.637 76.278 118.637C77.7872 118.637 79.1549 119.289 79.8074 120.289V118.811H82.0103V129.108H79.8074V129.11ZM76.5433 127.268C78.2981 127.268 79.8074 125.941 79.8074 123.921C79.8074 121.901 78.2981 120.574 76.5433 120.574C74.7884 120.574 73.2792 121.901 73.2792 123.921C73.2792 125.941 74.7884 127.268 76.5433 127.268Z" fill="white"/>
</g>
</g>
<path d="M103.463 122.386L108.167 117.682L107.202 116.717L102.498 121.421L97.7931 116.717L96.8281 117.682L101.533 122.386L96.8283 127.091L97.7934 128.056L102.498 123.351L107.202 128.056L108.167 127.091L103.463 122.386Z" fill="white"/>
<rect x="119" y="115.676" width="130" height="13.65" fill="url(#pattern0_2121_8332)"/>
<defs>
<pattern id="pattern0_2121_8332" patternContentUnits="objectBoundingBox" width="1" height="1">
<use xlink:href="#image0_2121_8332" transform="scale(0.00166667 0.015873)"/>
</pattern>
<radialGradient id="paint0_radial_2121_8332" cx="0" cy="0" r="1" gradientUnits="userSpaceOnUse" gradientTransform="translate(107.894 26.7964) rotate(71.5651) scale(46.8478 41.8791)">
<stop stop-color="#FFD556"/>
<stop offset="1" stop-color="#ED4E01"/>
</radialGradient>
<clipPath id="clip0_2121_8332">
<rect width="85" height="20.4" fill="white" transform="translate(0 112.301)"/>
</clipPath>
<clipPath id="clip1_2121_8332">
<rect width="81.9406" height="20.614" fill="white" transform="translate(0 111.451)"/>

</clipPath>
</defs>
<path fill-rule="evenodd" transform="scale(0.8) translate(152, 144)" clip-rule="evenodd" d="M38.0938 0.770508H43.5117V6.24805H48.875V0.770508H54.293V6.26074H48.875V11.7256H54.293V17.2158H48.875V11.7383H43.5117V17.2158H38.0938V11.7256H43.457V6.26074H38.0938V0.770508ZM35.3652 0.78516H29.9473V6.23535H24.5293V1.00781H19V17.0078H24.5293V11.7256H29.9473V17.2158H35.3652V11.7256H29.9473V6.27539H35.3652V0.78516ZM11 6H5V12H11V6ZM0 1V17H16V1H0ZM58.5918 1.05176H63.8984L65.7483 9.44225L67.5991 1.05176H71.8559L73.8918 9.44225L75.6192 1.05176H80.9248L76.8531 17.2156H71.8559L69.82 8.64024L67.5991 17.2156H62.8487L58.5918 1.05176ZM79.3789 17.2158L85.0625 1.25195H91.1706L96.8549 17.2158H91.473L90.5659 14.8577H85.0625L84.3978 17.2158H79.3789ZM87.8711 6.42969L86.5469 10.084H89.1563L87.8711 6.42969ZM103.973 1.25195H98.9297V17.2593H110.456V13.0173H103.973V1.25195ZM118.299 1.25195H113.256V17.2593H124.782V13.0173H118.299V1.25195ZM139.865 1.14844H127.631V17.2156H139.865V13.1725H132.724V11.3347H138.5V7.18658H132.724V5.66385H139.865V1.14844ZM142.363 1.0498H156.66V5.33848H152.041V17.2158H147.037V5.33848H142.363V1.0498Z" fill="white"/>

</svg>
