<svg width="320" height="170" viewBox="0 0 300 170" fill="none" xmlns="http://www.w3.org/2000/svg" xmlns:xlink="http://www.w3.org/1999/xlink">
<path fill-rule="evenodd" clip-rule="evenodd" d="M172.49 14.6797H140.353L114.486 69.5478H134.474L114.486 118.145L172.49 49.1682H147.015L172.49 14.6797ZM97.2422 66.8056C97.2422 45.7132 111.363 27.9188 130.667 22.3601L122.682 39.2978C114.369 45.595 109 55.5732 109 66.8056C109 76.5227 113.018 85.3012 119.484 91.5699L114.762 103.05C104.088 94.579 97.2422 81.4917 97.2422 66.8056ZM128.134 110.442L136.434 100.572C138.711 101.045 141.071 101.294 143.488 101.294C162.536 101.294 177.977 85.8531 177.977 66.8056C177.977 54.6592 171.698 43.9794 162.208 37.8351L169.205 28.3634C181.585 36.6617 189.734 50.7819 189.734 66.8056C189.734 92.3465 169.029 113.052 143.488 113.052C138.106 113.052 132.938 112.132 128.134 110.442Z" fill="url(#paint0_radial_1987_26877)"/>
<g clip-path="url(#clip0_1987_26877)">
<g clip-path="url(#clip1_1987_26877)">
<path d="M11.8888 145.953L0.356415 165.926C0.0432715 166.468 0.434162 167.144 1.05829 167.144H3.70166L11.8844 152.646C12.1954 152.095 12.988 152.095 13.2968 152.646L21.4796 167.144H24.1208C24.7449 167.144 25.1358 166.468 24.8227 165.926L13.2925 145.953C12.9794 145.411 12.1997 145.411 11.8866 145.953H11.8888Z" fill="white"/>
<path d="M11.8309 159.097L7.18555 167.142H17.9923L13.3469 159.097C13.01 158.512 12.1656 158.512 11.8287 159.097H11.8309Z" fill="white"/>
<path d="M39.9897 160.496H32.7874L31.0921 164.968H28.168L34.9513 147.713H37.8517L44.635 164.968H41.7109L39.9897 160.496ZM33.6966 158.111H39.0805L36.5494 151.475C36.476 151.302 36.4263 151.106 36.4026 150.885C36.3788 151.106 36.3291 151.302 36.2557 151.475L33.6987 158.111H33.6966Z" fill="white"/>
<path d="M53.2723 154.983C53.1492 154.96 53.0348 154.934 52.8145 154.934C50.3806 154.934 48.9315 156.609 48.9315 159.905V164.969H46.2773V152.919H48.9315V155.156C49.4714 153.558 50.7758 152.625 52.6676 152.625C52.9376 152.625 53.1017 152.649 53.2745 152.675V154.985L53.2723 154.983Z" fill="white"/>
<path d="M62.7258 154.985H59.6289V160.518C59.6289 162.067 60.2185 162.656 61.7669 162.656C62.0866 162.656 62.3824 162.656 62.7258 162.632V164.917C62.3565 164.941 61.7173 164.967 61.2508 164.967C58.0308 164.967 56.9747 163.295 56.9747 160.468V154.983H54.9102V152.672H56.9747V149.318H59.6289V152.672H62.7258V154.983V154.985Z" fill="white"/>
<path d="M66.9906 159.478C67.1871 161.519 68.7593 162.822 70.703 162.822C72.2752 162.822 73.5299 162.133 74.0698 161.003H76.8233C76.0869 163.487 73.653 165.083 70.7268 165.083C66.8675 165.083 64.3105 162.182 64.3105 158.716C64.3105 155.25 66.9906 152.35 70.6512 152.35C74.3117 152.35 76.9918 155.226 76.9918 158.716C76.9918 158.986 76.9918 159.282 76.968 159.478H66.9885H66.9906ZM74.2426 157.634C73.9964 155.865 72.4976 154.611 70.6533 154.611C68.809 154.611 67.3362 155.816 67.0641 157.634H74.2404H74.2426Z" fill="white"/>
<path d="M78.627 147.703H81.2811V160.644C81.2811 162.045 81.97 162.708 83.1254 162.708C83.3457 162.708 83.7863 162.708 84.0325 162.684V164.945C83.6891 164.969 83.0282 164.995 82.5855 164.995C79.9551 164.995 78.6291 163.57 78.6291 160.719V147.703H78.627Z" fill="white"/>
<path d="M96.1509 164.968V163.092C95.3648 164.297 93.717 165.083 91.8986 165.083C88.5555 165.083 85.6055 162.625 85.6055 158.716C85.6055 154.807 88.5555 152.35 91.8986 152.35C93.717 152.35 95.3648 153.136 96.1509 154.341V152.559H98.805V164.966H96.1509V164.968ZM92.2182 162.748C94.3325 162.748 96.1509 161.15 96.1509 158.716C96.1509 156.282 94.3325 154.684 92.2182 154.684C90.1039 154.684 88.2856 156.282 88.2856 158.716C88.2856 161.15 90.1039 162.748 92.2182 162.748Z" fill="white"/>
</g>
</g>
<path d="M124.655 156.862L130.324 151.194L129.161 150.031L123.493 155.699L117.825 150.031L116.662 151.194L122.33 156.862L116.662 162.53L117.825 163.692L123.493 158.025L129.161 163.693L130.323 162.53L124.655 156.862Z" fill="white"/>
<rect x="143.373" y="148.777" width="156.626" height="16.4458" fill="url(#pattern0_1987_26877)"/>
<defs>
<pattern id="pattern0_1987_26877" patternContentUnits="objectBoundingBox" width="1" height="1">
<use xlink:href="#image0_1987_26877" transform="scale(0.00166667 0.015873)"/>
</pattern>
<radialGradient id="paint0_radial_1987_26877" cx="0" cy="0" r="1" gradientUnits="userSpaceOnUse" gradientTransform="translate(127.061 37.3136) rotate(71.5651) scale(64.7175 57.8535)">
<stop stop-color="#FFD556"/>
<stop offset="1" stop-color="#ED4E01"/>
</radialGradient>
<clipPath id="clip0_1987_26877">
<rect width="102.41" height="24.5783" fill="white" transform="translate(0 144.711)"/>
</clipPath>
<clipPath id="clip1_1987_26877">
<rect width="98.7236" height="24.8361" fill="white" transform="translate(0 143.688)"/>
</clipPath>
</defs>
<path fill-rule="evenodd" transform="translate(144, 147) scale(1.05)" clip-rule="evenodd" d="M38.0938 0.770508H43.5117V6.24805H48.875V0.770508H54.293V6.26074H48.875V11.7256H54.293V17.2158H48.875V11.7383H43.5117V17.2158H38.0938V11.7256H43.457V6.26074H38.0938V0.770508ZM35.3652 0.78516H29.9473V6.23535H24.5293V1.00781H19V17.0078H24.5293V11.7256H29.9473V17.2158H35.3652V11.7256H29.9473V6.27539H35.3652V0.78516ZM11 6H5V12H11V6ZM0 1V17H16V1H0ZM58.5918 1.05176H63.8984L65.7483 9.44225L67.5991 1.05176H71.8559L73.8918 9.44225L75.6192 1.05176H80.9248L76.8531 17.2156H71.8559L69.82 8.64024L67.5991 17.2156H62.8487L58.5918 1.05176ZM79.3789 17.2158L85.0625 1.25195H91.1706L96.8549 17.2158H91.473L90.5659 14.8577H85.0625L84.3978 17.2158H79.3789ZM87.8711 6.42969L86.5469 10.084H89.1563L87.8711 6.42969ZM103.973 1.25195H98.9297V17.2593H110.456V13.0173H103.973V1.25195ZM118.299 1.25195H113.256V17.2593H124.782V13.0173H118.299V1.25195ZM139.865 1.14844H127.631V17.2156H139.865V13.1725H132.724V11.3347H138.5V7.18658H132.724V5.66385H139.865V1.14844ZM142.363 1.0498H156.66V5.33848H152.041V17.2158H147.037V5.33848H142.363V1.0498Z" fill="white"/>
</svg>
