<svg width="157" height="18" viewBox="0 0 157 18" fill="none" xmlns="http://www.w3.org/2000/svg">
<path fill-rule="evenodd" clip-rule="evenodd" d="M38.0938 0.770508H43.5117V6.24805H48.875V0.770508H54.293V6.26074H48.875V11.7256H54.293V17.2158H48.875V11.7383H43.5117V17.2158H38.0938V11.7256H43.457V6.26074H38.0938V0.770508ZM35.3652 0.78516H29.9473V6.23535H24.5293V1.00781H19V17.0078H24.5293V11.7256H29.9473V17.2158H35.3652V11.7256H29.9473V6.27539H35.3652V0.78516ZM11 6H5V12H11V6ZM0 1V17H16V1H0ZM58.5918 1.05176H63.8984L65.7483 9.44225L67.5991 1.05176H71.8559L73.8918 9.44225L75.6192 1.05176H80.9248L76.8531 17.2156H71.8559L69.82 8.64024L67.5991 17.2156H62.8487L58.5918 1.05176ZM79.3789 17.2158L85.0625 1.25195H91.1706L96.8549 17.2158H91.473L90.5659 14.8577H85.0625L84.3978 17.2158H79.3789ZM87.8711 6.42969L86.5469 10.084H89.1563L87.8711 6.42969ZM103.973 1.25195H98.9297V17.2593H110.456V13.0173H103.973V1.25195ZM118.299 1.25195H113.256V17.2593H124.782V13.0173H118.299V1.25195ZM139.865 1.14844H127.631V17.2156H139.865V13.1725H132.724V11.3347H138.5V7.18658H132.724V5.66385H139.865V1.14844ZM142.363 1.0498H156.66V5.33848H152.041V17.2158H147.037V5.33848H142.363V1.0498Z" fill="white"/>
</svg>
