<svg width="384" height="377" viewBox="0 0 384 377" fill="none" xmlns="http://www.w3.org/2000/svg" xmlns:xlink="http://www.w3.org/1999/xlink">
<path d="M0.5 16C0.5 7.43958 7.43959 0.5 16 0.5H304.364C309.043 0.5 313.471 2.61364 316.414 6.25132L380.05 84.9129C382.282 87.6718 383.5 91.1129 383.5 94.6616V361C383.5 369.56 376.56 376.5 368 376.5H16C7.43959 376.5 0.5 369.56 0.5 361V16Z" stroke="white" stroke-opacity="0.2"/>
<path d="M85.4688 167.952C85.4408 171.284 85.3848 174.644 85.3848 177.5C85.3848 181.308 85.4408 184.668 85.4688 188H81.0728V176.996C81.0728 176.128 81.2128 174.308 81.4088 172.432L76.0048 188H72.0568L66.6528 172.376C66.8208 174.28 66.9608 176.128 66.9608 176.996V188H62.5648C62.6208 184.668 62.6488 181.308 62.6488 177.5C62.6488 174.644 62.6208 171.284 62.5648 167.952H69.4248L74.1008 181.924L78.7488 167.952H85.4688ZM96.1865 188.364C91.2585 188.364 88.7105 185.144 88.7105 180.664C88.7105 176.184 91.2585 172.936 96.1865 172.936C101.115 172.936 103.635 176.184 103.635 180.664C103.635 185.144 101.115 188.364 96.1865 188.364ZM96.1865 185.116C98.2865 185.116 99.4905 183.492 99.4905 180.664C99.4905 177.808 98.2865 176.184 96.1865 176.184C94.0865 176.184 92.8825 177.808 92.8825 180.664C92.8825 183.492 94.0865 185.116 96.1865 185.116ZM110.725 176.548C111.677 174.196 113.497 172.964 115.849 172.936V177.136C112.377 176.828 110.725 178.452 110.725 182.12V188H106.525C106.553 185.536 106.581 183.072 106.581 180.608C106.581 178.2 106.553 175.708 106.525 173.272H110.809L110.725 176.044V176.548ZM124.624 172.936C129.16 172.936 131.736 175.848 131.54 180.608L131.512 181.308H121.18C121.376 183.744 122.608 185.116 124.596 185.116C126.108 185.116 127.256 184.416 127.732 183.184L131.484 183.772C130.56 186.628 127.984 188.364 124.652 188.364C119.976 188.364 117.148 185.452 117.148 180.692C117.148 175.876 119.976 172.936 124.624 172.936ZM121.348 178.676H127.564C127.256 176.8 126.192 175.764 124.568 175.764C122.888 175.764 121.768 176.8 121.348 178.676ZM157.095 171.452H150.851C150.823 174.14 150.767 176.8 150.767 179.068C150.767 182.316 150.823 185.172 150.851 188H146.371C146.427 185.172 146.455 182.316 146.455 179.068C146.455 176.8 146.427 174.14 146.371 171.452H140.127L139.875 167.952H157.347L157.095 171.452ZM163.042 188.364C158.114 188.364 155.566 185.144 155.566 180.664C155.566 176.184 158.114 172.936 163.042 172.936C167.97 172.936 170.49 176.184 170.49 180.664C170.49 185.144 167.97 188.364 163.042 188.364ZM163.042 185.116C165.142 185.116 166.346 183.492 166.346 180.664C166.346 177.808 165.142 176.184 163.042 176.184C160.942 176.184 159.738 177.808 159.738 180.664C159.738 183.492 160.942 185.116 163.042 185.116ZM189.253 188.364C183.737 188.364 180.069 184.36 180.069 177.976C180.069 171.592 183.737 167.588 189.253 167.588C193.817 167.588 197.009 170.304 197.961 174.896L193.621 175.764C193.061 173.02 191.465 171.368 189.253 171.368C186.481 171.368 184.521 173.86 184.521 177.976C184.521 182.008 186.481 184.584 189.253 184.584C191.577 184.584 193.201 182.96 193.761 180.048L198.129 180.748C197.261 185.536 194.041 188.364 189.253 188.364ZM207.585 188.364C202.657 188.364 200.109 185.144 200.109 180.664C200.109 176.184 202.657 172.936 207.585 172.936C212.513 172.936 215.033 176.184 215.033 180.664C215.033 185.144 212.513 188.364 207.585 188.364ZM207.585 185.116C209.685 185.116 210.889 183.492 210.889 180.664C210.889 177.808 209.685 176.184 207.585 176.184C205.485 176.184 204.281 177.808 204.281 180.664C204.281 183.492 205.485 185.116 207.585 185.116ZM240.968 188H236.74C236.796 185.032 236.796 182.316 236.796 179.292C236.796 177.22 236.124 176.184 234.36 176.184C232.428 176.184 231.532 177.64 231.532 179.544C231.532 182.316 231.532 185.144 231.56 188H227.332C227.388 185.032 227.388 182.316 227.388 179.292C227.388 177.192 226.66 176.184 225.008 176.184C222.964 176.184 222.124 178.284 222.124 181.056V188H217.924C217.952 185.536 217.98 183.072 217.98 180.608C217.98 178.2 217.952 175.708 217.924 173.272H222.208L222.124 176.044V176.212C223.02 174.112 224.672 172.936 226.716 172.936C229.46 172.936 230.776 174.28 231.28 176.184C232.064 174.112 233.828 172.936 236.096 172.936C239.876 172.936 240.94 175.428 240.94 178.48C240.94 181.588 240.912 184.78 240.968 188ZM251.253 172.936C255.789 172.936 258.365 175.848 258.169 180.608L258.141 181.308H247.809C248.005 183.744 249.237 185.116 251.225 185.116C252.737 185.116 253.885 184.416 254.361 183.184L258.113 183.772C257.189 186.628 254.613 188.364 251.281 188.364C246.605 188.364 243.777 185.452 243.777 180.692C243.777 175.876 246.605 172.936 251.253 172.936ZM247.977 178.676H254.193C253.885 176.8 252.821 175.764 251.197 175.764C249.517 175.764 248.397 176.8 247.977 178.676Z" fill="white" fill-opacity="0.3"/>
</svg>

