<svg width="28" height="28" viewBox="0 0 28 28" fill="none" xmlns="http://www.w3.org/2000/svg">
<circle cx="14" cy="14" r="14" fill="#010115"/>
<path d="M19.3369 10.6667V9.33333H8.67025V18.6667H19.3369V17.3333H14.0036C13.6354 17.3333 13.3369 17.0349 13.3369 16.6667V11.3333C13.3369 10.9651 13.6354 10.6667 14.0036 10.6667H19.3369ZM8.00358 8H20.0036C20.3718 8 20.6703 8.29847 20.6703 8.66667V19.3333C20.6703 19.7015 20.3718 20 20.0036 20H8.00358C7.63539 20 7.33691 19.7015 7.33691 19.3333V8.66667C7.33691 8.29847 7.63539 8 8.00358 8ZM14.6703 12V16H19.3369V12H14.6703ZM16.0036 13.3333H18.0036V14.6667H16.0036V13.3333Z" fill="white"/>
</svg>
