<svg width="28" height="28" viewBox="0 0 28 28" fill="none" xmlns="http://www.w3.org/2000/svg">
<circle cx="14" cy="14" r="14" fill="#0000C9"/>
<path d="M19.336 10.6667V9.33333H8.66927V18.6667H19.336V17.3333H14.0026C13.6344 17.3333 13.336 17.0349 13.336 16.6667V11.3333C13.336 10.9651 13.6344 10.6667 14.0026 10.6667H19.336ZM8.0026 8H20.0026C20.3708 8 20.6693 8.29847 20.6693 8.66667V19.3333C20.6693 19.7015 20.3708 20 20.0026 20H8.0026C7.63442 20 7.33594 19.7015 7.33594 19.3333V8.66667C7.33594 8.29847 7.63442 8 8.0026 8ZM14.6693 12V16H19.336V12H14.6693ZM16.0026 13.3333H18.0026V14.6667H16.0026V13.3333Z" fill="white"/>
</svg>
