<svg width="12" height="12" viewBox="0 0 12 12" fill="none" xmlns="http://www.w3.org/2000/svg">
<path d="M3.08322 2.49935V0.749349C3.08322 0.427186 3.34439 0.166016 3.66655 0.166016H10.6666C10.9887 0.166016 11.2499 0.427186 11.2499 0.749349V8.91602C11.2499 9.23819 10.9887 9.49935 10.6666 9.49935H8.91655V11.2488C8.91655 11.5713 8.65411 11.8327 8.32925 11.8327H1.33722C1.01284 11.8327 0.75 11.5733 0.75 11.2488L0.751517 3.08319C0.751575 2.76075 1.01404 2.49935 1.33883 2.49935H3.08322ZM1.91808 3.66602L1.91678 10.666H7.74988V3.66602H1.91808ZM4.24988 2.49935H8.91655V8.33268H10.0832V1.33268H4.24988V2.49935Z" fill="#8080D7"/>
</svg>
