<svg width="289" height="45" viewBox="0 0 289 45" fill="none" xmlns="http://www.w3.org/2000/svg">
<g clip-path="url(#clip0_589_1928)">
<g clip-path="url(#clip1_589_1928)">
<g clip-path="url(#clip2_589_1928)">
<path d="M13.365 10.4179L0.403293 32.8655C0.0513351 33.4747 0.490675 34.2345 1.19216 34.2345H4.16317L13.3602 17.9401C13.7097 17.3211 14.6005 17.3211 14.9476 17.9401L24.1447 34.2345H27.1132C27.8147 34.2345 28.2541 33.4747 27.9021 32.8655L14.9428 10.4179C14.5908 9.80862 13.7146 9.80862 13.3626 10.4179H13.365Z" fill="white"/>
<path d="M13.2992 25.1926L8.07812 34.2342H20.2243L15.0032 25.1926C14.6245 24.5348 13.6755 24.5348 13.2968 25.1926H13.2992Z" fill="white"/>
<path d="M44.955 26.7675H36.86L34.9545 31.7945H31.668L39.2921 12.4004H42.552L50.1761 31.7945H46.8895L44.955 26.7675ZM37.8818 24.0878H43.9331L41.0883 16.6287C41.0058 16.4346 40.9499 16.2137 40.9232 15.9661C40.8965 16.2137 40.8407 16.4346 40.7582 16.6287L37.8843 24.0878H37.8818Z" fill="white"/>
<path d="M59.8854 20.5725C59.7471 20.5458 59.6184 20.5167 59.3709 20.5167C56.6353 20.5167 55.0066 22.4002 55.0066 26.1043V31.7963H52.0234V18.252H55.0066V20.7667C55.6134 18.9705 57.0795 17.9219 59.2058 17.9219C59.5092 17.9219 59.6937 17.9486 59.8879 17.9777V20.5749L59.8854 20.5725Z" fill="white"/>
<path d="M70.507 20.5763H67.0263V26.795C67.0263 28.5353 67.6889 29.198 69.4293 29.198C69.7886 29.198 70.1211 29.198 70.507 29.1713V31.7394C70.092 31.7661 69.3735 31.7952 68.8492 31.7952C65.2301 31.7952 64.0432 29.9165 64.0432 26.7392V20.5738H61.7227V17.9766H64.0432V14.207H67.0263V17.9766H70.507V20.5738V20.5763Z" fill="white"/>
<path d="M75.3013 25.6238C75.5222 27.9176 77.2893 29.3813 79.4738 29.3813C81.2409 29.3813 82.6512 28.607 83.258 27.3375H86.3528C85.5251 30.1289 82.7895 31.9227 79.5006 31.9227C75.163 31.9227 72.2891 28.6628 72.2891 24.767C72.2891 20.8712 75.3013 17.6113 79.4156 17.6113C83.5299 17.6113 86.5421 20.8445 86.5421 24.767C86.5421 25.0704 86.5421 25.4029 86.5154 25.6238H75.2989H75.3013ZM83.4522 23.5509C83.1755 21.563 81.4909 20.1527 79.418 20.1527C77.3451 20.1527 75.6897 21.5071 75.3839 23.5509H83.4498H83.4522Z" fill="white"/>
<path d="M88.3848 12.3887H91.3679V26.933C91.3679 28.5083 92.1422 29.2535 93.4408 29.2535C93.6884 29.2535 94.1836 29.2535 94.4603 29.2268V31.7682C94.0743 31.7949 93.3316 31.824 92.834 31.824C89.8775 31.824 88.3872 30.222 88.3872 27.018V12.3887H88.3848Z" fill="white"/>
<path d="M108.079 31.794V29.6847C107.196 31.0391 105.343 31.9227 103.3 31.9227C99.5422 31.9227 96.2266 29.1604 96.2266 24.767C96.2266 20.3736 99.5422 17.6113 103.3 17.6113C105.343 17.6113 107.196 18.4949 108.079 19.8493V17.8468H111.062V31.7916H108.079V31.794ZM103.659 29.2987C106.035 29.2987 108.079 27.5026 108.079 24.767C108.079 22.0314 106.035 20.2352 103.659 20.2352C101.283 20.2352 99.2388 22.0314 99.2388 24.767C99.2388 27.5026 101.283 29.2987 103.659 29.2987Z" fill="white"/>
</g>
</g>
<path d="M120.339 26.1814C120.406 24.7505 120.406 23.7667 120.339 22.3358C121.814 22.4028 122.798 22.4028 124.274 22.3358C124.207 23.7667 124.207 24.7505 124.274 26.1814C122.798 26.1143 121.814 26.1143 120.339 26.1814ZM143.67 25.7119L147.561 32.2852H143.424L142.016 29.6022L140.205 26.405H137.075L137.142 32.2852H133.565C133.609 29.6245 133.632 26.9416 133.632 23.9008C133.632 21.6203 133.609 18.9373 133.565 16.2767H141.368C144.721 16.2767 146.711 18.0877 146.711 21.1061C146.711 23.409 145.616 25.0188 143.67 25.7119ZM140.63 19.1386H137.119C137.097 20.7483 137.075 22.3134 137.075 23.722H140.406C142.172 23.722 143.111 22.8947 143.111 21.4191C143.111 19.9434 142.172 19.1162 140.63 19.1386ZM154.276 20.2565C157.898 20.2565 159.955 22.5817 159.799 26.3826L159.776 26.9416H151.526C151.683 28.8867 152.666 29.9823 154.254 29.9823C155.461 29.9823 156.378 29.4233 156.758 28.4396L159.754 28.9091C159.016 31.1896 156.959 32.5758 154.299 32.5758C150.565 32.5758 148.307 30.2506 148.307 26.4497C148.307 22.6041 150.565 20.2565 154.276 20.2565ZM151.66 24.8399H156.624C156.378 23.3419 155.528 22.5146 154.232 22.5146C152.89 22.5146 151.996 23.3419 151.66 24.8399ZM173.053 32.2852H169.676C169.721 29.9152 169.721 27.7464 169.721 25.3318C169.721 23.6773 169.185 22.85 167.776 22.85C166.233 22.85 165.361 24.0126 165.361 25.5553V32.2852H162.008C162.03 30.3176 162.052 28.3501 162.052 26.3826C162.052 24.4598 162.03 22.4699 162.008 20.5248H165.428L165.361 22.4476C166.122 21.039 167.508 20.2565 169.162 20.2565C172.158 20.2565 173.03 22.2463 173.03 24.6834C173.03 27.1651 173.008 29.714 173.053 32.2852ZM187.054 32.2852H183.7L183.521 30.2058C182.806 31.6591 181.621 32.5758 180.056 32.5758C177.015 32.5758 175.294 29.8258 175.294 26.4273C175.294 23.0289 176.993 20.2565 180.034 20.2565C181.532 20.2565 182.672 20.9943 183.41 22.2463L183.454 20.5248H186.719C186.674 22.8053 186.652 24.4374 186.652 26.2708C186.652 28.2607 186.808 30.0941 187.054 32.2852ZM181.084 29.9823C182.649 29.9823 183.544 28.6631 183.544 26.3155C183.544 24.1021 182.739 22.85 181.084 22.85C179.43 22.85 178.625 24.2362 178.625 26.4273C178.625 28.6184 179.452 29.9823 181.084 29.9823ZM189.519 19.0268C189.541 18.5796 189.541 18.0877 189.541 17.6406C189.541 17.1934 189.541 16.7239 189.519 16.2767H193.029C193.007 16.7239 193.007 17.1934 193.007 17.6406C193.007 18.0877 193.007 18.5796 193.029 19.0268H189.519ZM189.586 32.2852C189.63 30.3176 189.63 28.3501 189.63 26.3826C189.63 24.4598 189.608 22.4699 189.586 20.5248H192.984C192.962 22.4699 192.939 24.4598 192.939 26.3826C192.939 28.3501 192.939 30.3176 192.984 32.2852H189.586ZM200.949 32.5758C198.289 32.5758 195.874 31.5697 195.248 29.2444L198.311 28.5513C198.691 29.7587 199.787 30.1835 200.994 30.1835C202.022 30.1835 202.872 29.8705 202.872 29.0879C202.872 28.2607 201.955 27.903 200.48 27.5452L198.959 27.1651C196.947 26.6733 195.494 25.6448 195.494 23.7667C195.494 21.3744 197.774 20.2565 200.681 20.2565C203.207 20.2565 205.018 21.2179 205.868 23.0065L203.029 23.8785C202.559 23.0512 201.642 22.6488 200.48 22.6488C199.63 22.6488 198.646 22.9171 198.646 23.6325C198.646 24.2809 199.384 24.4598 200.502 24.7281L202.425 25.1976C203.968 25.5777 206.025 26.4497 206.025 28.9091C206.025 31.3238 203.856 32.5758 200.949 32.5758ZM213.176 32.5758C210.516 32.5758 208.101 31.5697 207.475 29.2444L210.538 28.5513C210.918 29.7587 212.014 30.1835 213.221 30.1835C214.25 30.1835 215.099 29.8705 215.099 29.0879C215.099 28.2607 214.183 27.903 212.707 27.5452L211.187 27.1651C209.174 26.6733 207.721 25.6448 207.721 23.7667C207.721 21.3744 210.002 20.2565 212.908 20.2565C215.435 20.2565 217.246 21.2179 218.095 23.0065L215.256 23.8785C214.786 23.0512 213.869 22.6488 212.707 22.6488C211.857 22.6488 210.873 22.9171 210.873 23.6325C210.873 24.2809 211.611 24.4598 212.729 24.7281L214.652 25.1976C216.195 25.5777 218.252 26.4497 218.252 28.9091C218.252 31.3238 216.083 32.5758 213.176 32.5758ZM231.552 32.2852H228.198L228.019 30.2058C227.304 31.6591 226.119 32.5758 224.554 32.5758C221.513 32.5758 219.792 29.8258 219.792 26.4273C219.792 23.0289 221.491 20.2565 224.532 20.2565C226.03 20.2565 227.17 20.9943 227.908 22.2463L227.952 20.5248H231.217C231.172 22.8053 231.15 24.4374 231.15 26.2708C231.15 28.2607 231.306 30.0941 231.552 32.2852ZM225.582 29.9823C227.147 29.9823 228.042 28.6631 228.042 26.3155C228.042 24.1021 227.237 22.85 225.582 22.85C223.928 22.85 223.123 24.2362 223.123 26.4273C223.123 28.6184 223.95 29.9823 225.582 29.9823ZM245.062 32.2852H241.685C241.73 29.9152 241.73 27.7464 241.73 25.3318C241.73 23.6773 241.194 22.85 239.785 22.85C238.242 22.85 237.37 24.0126 237.37 25.5553V32.2852H234.017C234.039 30.3176 234.061 28.3501 234.061 26.3826C234.061 24.4598 234.039 22.4699 234.017 20.5248H237.437L237.37 22.4476C238.131 21.039 239.517 20.2565 241.171 20.2565C244.167 20.2565 245.039 22.2463 245.039 24.6834C245.039 27.1651 245.017 29.714 245.062 32.2852ZM253.317 32.5758C249.583 32.5758 247.303 30.2506 247.303 26.4273C247.303 22.5817 249.561 20.2565 253.272 20.2565C256.201 20.2565 258.102 21.7545 258.571 24.3704L255.441 24.9964C255.195 23.6325 254.39 22.8724 253.183 22.8724C251.573 22.8724 250.634 24.1691 250.634 26.4273C250.634 28.6855 251.573 29.9823 253.228 29.9823C254.48 29.9823 255.284 29.1774 255.508 27.7688L258.661 28.3501C258.213 31.0331 256.291 32.5758 253.317 32.5758ZM266.133 20.2565C269.755 20.2565 271.812 22.5817 271.655 26.3826L271.633 26.9416H263.383C263.539 28.8867 264.523 29.9823 266.11 29.9823C267.318 29.9823 268.234 29.4233 268.614 28.4396L271.61 28.9091C270.873 31.1896 268.816 32.5758 266.155 32.5758C262.421 32.5758 260.163 30.2506 260.163 26.4497C260.163 22.6041 262.421 20.2565 266.133 20.2565ZM263.517 24.8399H268.48C268.234 23.3419 267.385 22.5146 266.088 22.5146C264.746 22.5146 263.852 23.3419 263.517 24.8399Z" fill="white"/>
</g>
<defs>
<clipPath id="clip0_589_1928">
<rect width="289" height="44.7163" fill="white"/>
</clipPath>
<clipPath id="clip1_589_1928">
<rect width="115.103" height="29.8109" fill="white" transform="translate(0 7.87891)"/>
</clipPath>
<clipPath id="clip2_589_1928">
<rect width="110.96" height="27.9145" fill="white" transform="translate(0 7.87891)"/>
</clipPath>
</defs>
</svg>
