<svg width="54" height="54" viewBox="0 0 54 54" fill="none" xmlns="http://www.w3.org/2000/svg">
<circle cx="27.0003" cy="27.0022" r="23.1429" fill="#ED4E00"/>
<path d="M36.75 22.668V27.0013H34.5833V23.7513H29.1667V18.3346H19.4167V35.668H25.9167V37.8346H18.3262C17.732 37.8346 17.25 37.3536 17.25 36.7602V17.2424C17.25 16.6612 17.7361 16.168 18.3357 16.168H30.2465L36.75 22.668ZM28.9345 30.6054C28.9767 29.8176 29.5846 29.177 30.3692 29.0935L31.3124 28.9934C31.4244 28.9815 31.53 28.9345 31.6138 28.8592L32.3194 28.2254C32.9062 27.698 33.7891 27.6749 34.4029 28.1708L35.1407 28.7669C35.2283 28.8377 35.3361 28.879 35.4487 28.8851L36.3959 28.9358C37.1837 28.978 37.8243 29.5859 37.9078 30.3705L38.0079 31.3137C38.0198 31.4257 38.0668 31.5313 38.1421 31.6151L38.7759 32.3207C39.3033 32.9075 39.3264 33.7904 38.8305 34.4042L38.2344 35.142C38.1636 35.2297 38.1223 35.3374 38.1162 35.45L38.0655 36.3972C38.0234 37.185 37.4154 37.8256 36.6308 37.9091L35.6876 38.0092C35.5756 38.0211 35.47 38.0681 35.3862 38.1434L34.6806 38.7772C34.0938 39.3046 33.2109 39.3277 32.5971 38.8318L31.8593 38.2357C31.7717 38.1649 31.6639 38.1236 31.5513 38.1175L30.6041 38.0668C29.8163 38.0247 29.1757 37.4167 29.0922 36.6321L28.9921 35.6889C28.9802 35.5769 28.9332 35.4713 28.8579 35.3875L28.2241 34.6819C27.6967 34.0951 27.6736 33.2121 28.1695 32.5985L28.7656 31.8606C28.8364 31.773 28.8777 31.6652 28.8838 31.5526L28.9345 30.6054ZM36.7828 32.4508L35.6338 31.3018L32.9583 33.9772L31.3662 32.3851L30.2172 33.5341L32.9583 36.2754L36.7828 32.4508Z" fill="white"/>
</svg>
