<svg width="164" height="42" viewBox="0 0 164 42" fill="none" xmlns="http://www.w3.org/2000/svg">
<g clip-path="url(#clip0_593_2113)">
<path d="M19.7333 3.75287L0.593256 36.9003C0.0735353 37.7999 0.722289 38.9218 1.75815 38.9218H6.1453L19.7261 14.8605C20.2423 13.9465 21.5577 13.9465 22.0702 14.8605L35.6511 38.9218H40.0346C41.0705 38.9218 41.7193 37.7999 41.1995 36.9003L22.0631 3.75287C21.5434 2.85321 20.2494 2.85321 19.7297 3.75287H19.7333Z" fill="white"/>
<path d="M19.6356 25.5703L11.9258 38.9217H29.8615L22.1517 25.5703C21.5926 24.599 20.1911 24.599 19.632 25.5703H19.6356Z" fill="white"/>
<path d="M66.382 27.895H54.4285L51.6148 35.3181H46.7617L58.0199 6.67969H62.8336L74.0918 35.3181H69.2387L66.382 27.895ZM55.9375 23.938H64.8731L60.6723 12.9235C60.5504 12.6368 60.468 12.3106 60.4286 11.945C60.3891 12.3106 60.3067 12.6368 60.1848 12.9235L55.941 23.938H55.9375Z" fill="white"/>
<path d="M88.4298 18.748C88.2255 18.7086 88.0355 18.6656 87.6699 18.6656C83.6304 18.6656 81.2254 21.447 81.2254 26.9166V35.3217H76.8203V15.3214H81.2254V19.0348C82.1215 16.3824 84.2864 14.834 87.4262 14.834C87.8742 14.834 88.1466 14.8734 88.4334 14.9164V18.7516L88.4298 18.748Z" fill="white"/>
<path d="M104.114 18.7528H98.9742V27.9357C98.9742 30.5056 99.9527 31.4842 102.523 31.4842C103.053 31.4842 103.544 31.4842 104.114 31.4447V35.2369C103.501 35.2763 102.44 35.3193 101.666 35.3193C96.3219 35.3193 94.5692 32.5451 94.5692 27.8533V18.7492H91.1426V14.914H94.5692V9.34766H98.9742V14.914H104.114V18.7492V18.7528Z" fill="white"/>
<path d="M111.192 26.2067C111.518 29.5938 114.128 31.7552 117.354 31.7552C119.963 31.7552 122.045 30.6118 122.941 28.7372H127.511C126.289 32.8591 122.25 35.5079 117.393 35.5079C110.988 35.5079 106.744 30.6942 106.744 24.9414C106.744 19.1887 111.192 14.375 117.268 14.375C123.343 14.375 127.791 19.1493 127.791 24.9414C127.791 25.3895 127.791 25.8805 127.752 26.2067H111.189H111.192ZM123.228 23.1457C122.82 20.2102 120.332 18.1277 117.271 18.1277C114.21 18.1277 111.766 20.1278 111.314 23.1457H123.225H123.228Z" fill="white"/>
<path d="M130.512 6.66211H134.917V28.1391C134.917 30.4653 136.06 31.5657 137.978 31.5657C138.343 31.5657 139.075 31.5657 139.483 31.5262V35.279C138.913 35.3184 137.816 35.3614 137.082 35.3614C132.716 35.3614 130.515 32.9958 130.515 28.2645V6.66211H130.512Z" fill="white"/>
<path d="M159.594 35.3179V32.2032C158.289 34.2032 155.554 35.5079 152.536 35.5079C146.988 35.5079 142.092 31.429 142.092 24.9414C142.092 18.4539 146.988 14.375 152.536 14.375C155.554 14.375 158.289 15.6797 159.594 17.6797V14.7227H163.999V35.3143H159.594V35.3179ZM153.067 31.6333C156.576 31.6333 159.594 28.9809 159.594 24.9414C159.594 20.902 156.576 18.2496 153.067 18.2496C149.558 18.2496 146.54 20.902 146.54 24.9414C146.54 28.9809 149.558 31.6333 153.067 31.6333Z" fill="white"/>
</g>
<defs>
<clipPath id="clip0_593_2113">
<rect width="163.85" height="41.2201" fill="white"/>
</clipPath>
</defs>
</svg>
