<svg width="29" height="29" viewBox="0 0 29 29" fill="none" xmlns="http://www.w3.org/2000/svg">
<path d="M16.2441 14.6016C16.2441 19.0196 12.9611 22.6016 8.91012 22.6016C7.94812 22.6036 6.99612 22.3976 6.10712 21.9966C5.21812 21.5946 4.41013 21.0056 3.73012 20.2636C3.04912 19.5206 2.50812 18.6376 2.13912 17.6666C1.77013 16.6956 1.57913 15.6536 1.57812 14.6016C1.57812 10.1826 4.86112 6.60157 8.91012 6.60157C9.87212 6.60057 10.8241 6.80557 11.7131 7.20657C12.6021 7.60857 13.4111 8.19657 14.0921 8.93957C14.7731 9.68257 15.3131 10.5656 15.6821 11.5366C16.0521 12.5086 16.2421 13.5496 16.2441 14.6016ZM24.2871 14.6016C24.2871 18.7616 22.6461 22.1326 20.6211 22.1326C18.5971 22.1326 16.9551 18.7596 16.9551 14.6016C16.9551 10.4416 18.5971 7.07157 20.6211 7.07157C22.6461 7.07157 24.2871 10.4436 24.2871 14.6016ZM27.5781 14.6016C27.5781 18.3276 27.0011 21.3486 26.2881 21.3486C25.5761 21.3486 24.9991 18.3266 24.9991 14.6016C24.9991 10.8756 25.5761 7.85557 26.2891 7.85557C27.0011 7.85557 27.5781 10.8756 27.5781 14.6016Z" fill="#808588"/>
</svg>
