<svg width="24" height="19" viewBox="0 0 24 19" fill="none" xmlns="http://www.w3.org/2000/svg">
<path d="M19.7229 1.9527C18.2009 1.2507 16.5949 0.751703 14.9449 0.470703C14.7199 0.877703 14.5149 1.2957 14.3329 1.7237C12.5749 1.4567 10.7879 1.4567 9.03086 1.7237C8.84886 1.2957 8.64386 0.877703 8.41786 0.470703C6.76786 0.754703 5.16086 1.2527 3.63686 1.9557C0.613859 6.4627 -0.206141 10.8577 0.203859 15.1917C1.97486 16.5097 3.95586 17.5117 6.06286 18.1547C6.53786 17.5117 6.95786 16.8297 7.31786 16.1157C6.63386 15.8577 5.97286 15.5407 5.34286 15.1657C5.50886 15.0447 5.67086 14.9197 5.82686 14.7987C9.53686 16.5567 13.8319 16.5567 17.5429 14.7987C17.7009 14.9297 17.8629 15.0537 18.0269 15.1657C17.3949 15.5407 16.7329 15.8597 16.0469 16.1177C16.4079 16.8317 16.8269 17.5137 17.3019 18.1547C19.4109 17.5147 21.3939 16.5127 23.1649 15.1927C23.6459 10.1677 22.3429 5.8137 19.7229 1.9527ZM7.83786 12.5257C6.69486 12.5257 5.75186 11.4807 5.75186 10.1957C5.75186 8.9127 6.66286 7.8577 7.83486 7.8577C9.00486 7.8577 9.94186 8.9117 9.92086 10.1957C9.90186 11.4807 9.00186 12.5257 7.83686 12.5257H7.83786ZM15.5309 12.5257C14.3869 12.5257 13.4469 11.4807 13.4469 10.1957C13.4469 8.9127 14.3579 7.8577 15.5309 7.8577C16.7039 7.8577 17.6339 8.9117 17.6129 10.1957C17.5929 11.4807 16.6949 12.5257 15.5309 12.5257Z" fill="white" fill-opacity="0.5"/>
</svg>
