<svg width="25" height="24" viewBox="0 0 25 24" fill="none" xmlns="http://www.w3.org/2000/svg">
<path d="M12.5781 0.220703C19.2081 0.220703 24.5781 5.5907 24.5781 12.2207C24.5771 17.3767 21.2881 21.9567 16.4031 23.6057C15.8031 23.7257 15.5781 23.3507 15.5781 23.0357C15.5781 22.6307 15.5931 21.3407 15.5931 19.7357C15.5931 18.6107 15.2181 17.8907 14.7831 17.5157C17.4531 17.2157 20.2581 16.1957 20.2581 11.5907C20.2581 10.2707 19.7931 9.2057 19.0281 8.3657C19.1481 8.0657 19.5681 6.8357 18.9081 5.1857C18.9081 5.1857 17.9031 4.8557 15.6081 6.4157C14.6481 6.1457 13.6281 6.0107 12.6081 6.0107C11.5881 6.0107 10.5681 6.1457 9.60813 6.4157C7.31313 4.8707 6.30813 5.1857 6.30813 5.1857C5.64813 6.8357 6.06813 8.0657 6.18813 8.3657C5.42313 9.2057 4.95813 10.2857 4.95813 11.5907C4.95813 16.1807 7.74813 17.2157 10.4181 17.5157C10.0731 17.8157 9.75813 18.3407 9.65313 19.1207C8.96313 19.4357 7.23813 19.9457 6.15813 18.1307C5.93313 17.7707 5.25813 16.8857 4.31313 16.9007C3.30813 16.9157 3.90813 17.4707 4.32813 17.6957C4.83813 17.9807 5.42313 19.0457 5.55813 19.3907C5.79813 20.0657 6.57813 21.3557 9.59313 20.8007C9.59313 21.8057 9.60813 22.7507 9.60813 23.0357C9.60813 23.3507 9.38313 23.7107 8.78313 23.6057C3.88113 21.9737 0.575127 17.3867 0.578127 12.2207C0.578127 5.5907 5.94813 0.220703 12.5781 0.220703Z" fill="#808588"/>
</svg>
