<svg width="29" height="29" viewBox="0 0 29 29" fill="none" xmlns="http://www.w3.org/2000/svg">
<path d="M25.5781 4.9127V23.5287C25.5781 24.4627 24.8201 25.2207 23.8861 25.2207H5.27012C4.33612 25.2207 3.57812 24.4627 3.57812 23.5287V4.9127C3.57812 3.9787 4.33612 3.2207 5.27012 3.2207H23.8861C24.8201 3.2207 25.5781 3.9787 25.5781 4.9127ZM10.3471 11.6827H6.96313V21.8357H10.3471V11.6827ZM10.5591 8.2977C10.5761 7.5237 10.1231 6.8167 9.41313 6.5087C8.70312 6.2007 7.87812 6.3527 7.32412 6.8937C6.77112 7.4347 6.60013 8.2567 6.89213 8.9737C7.18413 9.6907 7.88112 10.1587 8.65512 10.1587C9.15712 10.1727 9.64213 9.9827 10.0011 9.6317C10.3601 9.2807 10.5611 8.7997 10.5591 8.2977ZM22.1931 15.5407C22.1931 12.4527 20.2561 11.3947 18.4111 11.3947C17.1181 11.3867 15.9111 12.0417 15.2131 13.1287V11.6827H12.0401V21.8357H15.4241V16.3107C15.3491 15.7667 15.5111 15.2177 15.8681 14.8017C16.2261 14.3857 16.7451 14.1427 17.2941 14.1357C18.2251 14.1357 18.8091 14.6357 18.8091 16.2687V21.8357H22.1931V15.5407Z" fill="#808588"/>
</svg>
