<svg width="28" height="29" viewBox="0 0 28 29" fill="none" xmlns="http://www.w3.org/2000/svg">
<path d="M23.0412 9.38687C23.0532 9.59387 23.0572 9.80187 23.0552 10.0099C23.0552 16.3689 18.3112 23.7049 9.6372 23.7049V23.7019C7.0712 23.7039 4.5592 22.9539 2.4082 21.5429C4.9062 21.8469 7.4202 21.1279 9.3872 19.5479C7.3592 19.5009 5.5882 18.1559 4.9822 16.2059C5.6892 16.3459 6.4182 16.3169 7.1112 16.1229C4.9112 15.6679 3.3282 13.6959 3.3282 11.4049V11.3429C3.9842 11.7159 4.7172 11.9229 5.4692 11.9459C3.3962 10.5319 2.7582 7.71787 4.0102 5.51787C6.3872 8.51687 9.9242 10.3469 13.7282 10.5469C13.3472 8.87887 13.8652 7.13187 15.0922 5.94787C15.9992 5.07387 17.2172 4.60387 18.4722 4.64287C19.7262 4.68287 20.9132 5.22887 21.7642 6.15787C22.8222 5.94487 23.8352 5.54887 24.7592 4.98787C24.4102 6.09887 23.6742 7.04487 22.6872 7.65087C23.6222 7.53787 24.5352 7.28187 25.3942 6.89187C24.7632 7.85787 23.9662 8.70287 23.0412 9.38687Z" fill="white" fill-opacity="0.5"/>
</svg>
